%TF.GenerationSoftware,KiCad,Pcbnew,9.0.0*%
%TF.CreationDate,2025-04-05T16:57:48+02:00*%
%TF.ProjectId,PCB_v2,5043425f-7632-42e6-9b69-6361645f7063,rev?*%
%TF.SameCoordinates,Original*%
%TF.FileFunction,Copper,L1,Top*%
%TF.FilePolarity,Positive*%
%FSLAX46Y46*%
G04 Gerber Fmt 4.6, Leading zero omitted, Abs format (unit mm)*
G04 Created by KiCad (PCBNEW 9.0.0) date 2025-04-05 16:57:48*
%MOMM*%
%LPD*%
G01*
G04 APERTURE LIST*
G04 Aperture macros list*
%AMRoundRect*
0 Rectangle with rounded corners*
0 $1 Rounding radius*
0 $2 $3 $4 $5 $6 $7 $8 $9 X,Y pos of 4 corners*
0 Add a 4 corners polygon primitive as box body*
4,1,4,$2,$3,$4,$5,$6,$7,$8,$9,$2,$3,0*
0 Add four circle primitives for the rounded corners*
1,1,$1+$1,$2,$3*
1,1,$1+$1,$4,$5*
1,1,$1+$1,$6,$7*
1,1,$1+$1,$8,$9*
0 Add four rect primitives between the rounded corners*
20,1,$1+$1,$2,$3,$4,$5,0*
20,1,$1+$1,$4,$5,$6,$7,0*
20,1,$1+$1,$6,$7,$8,$9,0*
20,1,$1+$1,$8,$9,$2,$3,0*%
G04 Aperture macros list end*
%TA.AperFunction,SMDPad,CuDef*%
%ADD10R,1.000000X1.000000*%
%TD*%
%TA.AperFunction,ComponentPad*%
%ADD11R,1.350000X1.350000*%
%TD*%
%TA.AperFunction,ComponentPad*%
%ADD12C,1.350000*%
%TD*%
%TA.AperFunction,SMDPad,CuDef*%
%ADD13RoundRect,0.237500X0.250000X0.237500X-0.250000X0.237500X-0.250000X-0.237500X0.250000X-0.237500X0*%
%TD*%
%TA.AperFunction,SMDPad,CuDef*%
%ADD14RoundRect,0.250000X-0.625000X0.400000X-0.625000X-0.400000X0.625000X-0.400000X0.625000X0.400000X0*%
%TD*%
%TA.AperFunction,SMDPad,CuDef*%
%ADD15RoundRect,0.250000X0.400000X0.625000X-0.400000X0.625000X-0.400000X-0.625000X0.400000X-0.625000X0*%
%TD*%
%TA.AperFunction,SMDPad,CuDef*%
%ADD16RoundRect,0.250000X0.450000X-0.350000X0.450000X0.350000X-0.450000X0.350000X-0.450000X-0.350000X0*%
%TD*%
%TA.AperFunction,SMDPad,CuDef*%
%ADD17R,1.400000X0.700000*%
%TD*%
%TA.AperFunction,SMDPad,CuDef*%
%ADD18R,2.300000X3.200000*%
%TD*%
%TA.AperFunction,SMDPad,CuDef*%
%ADD19RoundRect,0.160000X0.197500X0.160000X-0.197500X0.160000X-0.197500X-0.160000X0.197500X-0.160000X0*%
%TD*%
%TA.AperFunction,SMDPad,CuDef*%
%ADD20RoundRect,0.250000X0.412500X0.650000X-0.412500X0.650000X-0.412500X-0.650000X0.412500X-0.650000X0*%
%TD*%
%TA.AperFunction,SMDPad,CuDef*%
%ADD21RoundRect,0.237500X0.237500X-0.250000X0.237500X0.250000X-0.237500X0.250000X-0.237500X-0.250000X0*%
%TD*%
%TA.AperFunction,SMDPad,CuDef*%
%ADD22RoundRect,0.250000X-0.412500X-0.650000X0.412500X-0.650000X0.412500X0.650000X-0.412500X0.650000X0*%
%TD*%
%TA.AperFunction,SMDPad,CuDef*%
%ADD23RoundRect,0.237500X0.237500X-0.300000X0.237500X0.300000X-0.237500X0.300000X-0.237500X-0.300000X0*%
%TD*%
%TA.AperFunction,SMDPad,CuDef*%
%ADD24RoundRect,0.237500X-0.237500X0.300000X-0.237500X-0.300000X0.237500X-0.300000X0.237500X0.300000X0*%
%TD*%
%TA.AperFunction,SMDPad,CuDef*%
%ADD25RoundRect,0.237500X-0.300000X-0.237500X0.300000X-0.237500X0.300000X0.237500X-0.300000X0.237500X0*%
%TD*%
%TA.AperFunction,SMDPad,CuDef*%
%ADD26RoundRect,0.250000X0.650000X-0.412500X0.650000X0.412500X-0.650000X0.412500X-0.650000X-0.412500X0*%
%TD*%
%TA.AperFunction,SMDPad,CuDef*%
%ADD27R,0.600000X0.250000*%
%TD*%
%TA.AperFunction,SMDPad,CuDef*%
%ADD28R,0.900000X0.250000*%
%TD*%
%TA.AperFunction,SMDPad,CuDef*%
%ADD29R,1.300000X0.250000*%
%TD*%
%TA.AperFunction,SMDPad,CuDef*%
%ADD30RoundRect,0.250000X-0.450000X0.350000X-0.450000X-0.350000X0.450000X-0.350000X0.450000X0.350000X0*%
%TD*%
%TA.AperFunction,SMDPad,CuDef*%
%ADD31RoundRect,0.250000X-0.650000X0.412500X-0.650000X-0.412500X0.650000X-0.412500X0.650000X0.412500X0*%
%TD*%
%TA.AperFunction,SMDPad,CuDef*%
%ADD32RoundRect,0.250000X0.350000X0.450000X-0.350000X0.450000X-0.350000X-0.450000X0.350000X-0.450000X0*%
%TD*%
%TA.AperFunction,SMDPad,CuDef*%
%ADD33RoundRect,0.155000X0.155000X-0.212500X0.155000X0.212500X-0.155000X0.212500X-0.155000X-0.212500X0*%
%TD*%
%TA.AperFunction,ComponentPad*%
%ADD34C,2.057400*%
%TD*%
%TA.AperFunction,SMDPad,CuDef*%
%ADD35R,0.990000X0.300000*%
%TD*%
%TA.AperFunction,SMDPad,CuDef*%
%ADD36R,0.300000X0.990000*%
%TD*%
%TA.AperFunction,SMDPad,CuDef*%
%ADD37R,3.150000X2.150000*%
%TD*%
%TA.AperFunction,SMDPad,CuDef*%
%ADD38RoundRect,0.033750X-0.321250X-0.101250X0.321250X-0.101250X0.321250X0.101250X-0.321250X0.101250X0*%
%TD*%
%TA.AperFunction,SMDPad,CuDef*%
%ADD39R,0.500000X0.860000*%
%TD*%
%TA.AperFunction,SMDPad,CuDef*%
%ADD40RoundRect,0.160000X0.160000X-0.197500X0.160000X0.197500X-0.160000X0.197500X-0.160000X-0.197500X0*%
%TD*%
%TA.AperFunction,SMDPad,CuDef*%
%ADD41R,1.140000X0.600000*%
%TD*%
%TA.AperFunction,SMDPad,CuDef*%
%ADD42R,1.140000X0.300000*%
%TD*%
%TA.AperFunction,ComponentPad*%
%ADD43O,2.050000X0.950000*%
%TD*%
%TA.AperFunction,ComponentPad*%
%ADD44O,1.750000X0.950000*%
%TD*%
%TA.AperFunction,SMDPad,CuDef*%
%ADD45RoundRect,0.237500X-0.250000X-0.237500X0.250000X-0.237500X0.250000X0.237500X-0.250000X0.237500X0*%
%TD*%
%TA.AperFunction,SMDPad,CuDef*%
%ADD46RoundRect,0.100000X-0.100000X0.687500X-0.100000X-0.687500X0.100000X-0.687500X0.100000X0.687500X0*%
%TD*%
%TA.AperFunction,HeatsinkPad*%
%ADD47R,5.000000X3.400000*%
%TD*%
%TA.AperFunction,SMDPad,CuDef*%
%ADD48RoundRect,0.060000X-0.545000X-0.180000X0.545000X-0.180000X0.545000X0.180000X-0.545000X0.180000X0*%
%TD*%
%TA.AperFunction,SMDPad,CuDef*%
%ADD49RoundRect,0.250000X-0.337500X-0.475000X0.337500X-0.475000X0.337500X0.475000X-0.337500X0.475000X0*%
%TD*%
%TA.AperFunction,SMDPad,CuDef*%
%ADD50RoundRect,0.250000X-0.400000X-0.625000X0.400000X-0.625000X0.400000X0.625000X-0.400000X0.625000X0*%
%TD*%
%TA.AperFunction,SMDPad,CuDef*%
%ADD51RoundRect,0.155000X-0.212500X-0.155000X0.212500X-0.155000X0.212500X0.155000X-0.212500X0.155000X0*%
%TD*%
%TA.AperFunction,SMDPad,CuDef*%
%ADD52RoundRect,0.237500X0.287500X0.237500X-0.287500X0.237500X-0.287500X-0.237500X0.287500X-0.237500X0*%
%TD*%
%TA.AperFunction,SMDPad,CuDef*%
%ADD53R,0.850000X0.300000*%
%TD*%
%TA.AperFunction,SMDPad,CuDef*%
%ADD54R,0.300000X0.850000*%
%TD*%
%TA.AperFunction,SMDPad,CuDef*%
%ADD55R,1.650000X1.650000*%
%TD*%
%TA.AperFunction,SMDPad,CuDef*%
%ADD56RoundRect,0.250000X-0.350000X-0.450000X0.350000X-0.450000X0.350000X0.450000X-0.350000X0.450000X0*%
%TD*%
%TA.AperFunction,SMDPad,CuDef*%
%ADD57RoundRect,0.237500X-0.237500X0.287500X-0.237500X-0.287500X0.237500X-0.287500X0.237500X0.287500X0*%
%TD*%
%TA.AperFunction,ComponentPad*%
%ADD58R,1.700000X1.700000*%
%TD*%
%TA.AperFunction,ComponentPad*%
%ADD59O,1.700000X1.700000*%
%TD*%
%TA.AperFunction,ComponentPad*%
%ADD60R,1.000000X1.000000*%
%TD*%
%TA.AperFunction,SMDPad,CuDef*%
%ADD61RoundRect,0.100000X0.100000X-0.687500X0.100000X0.687500X-0.100000X0.687500X-0.100000X-0.687500X0*%
%TD*%
%TA.AperFunction,ViaPad*%
%ADD62C,0.600000*%
%TD*%
%TA.AperFunction,Conductor*%
%ADD63C,0.200000*%
%TD*%
%TA.AperFunction,Conductor*%
%ADD64C,0.400000*%
%TD*%
G04 APERTURE END LIST*
D10*
%TO.P,TP6,1,1*%
%TO.N,/MOTOR3_A_OUT*%
X101350000Y-112550000D03*
%TD*%
D11*
%TO.P,J3,1,Pin_1*%
%TO.N,/Battery*%
X141775000Y-133600000D03*
D12*
%TO.P,J3,2,Pin_2*%
%TO.N,GND*%
X139775000Y-133600000D03*
%TD*%
D13*
%TO.P,R12,1*%
%TO.N,GND*%
X136787500Y-122376000D03*
%TO.P,R12,2*%
%TO.N,Net-(U6-ISET)*%
X134962500Y-122376000D03*
%TD*%
D14*
%TO.P,R32,1*%
%TO.N,/Battery*%
X107125000Y-57775000D03*
%TO.P,R32,2*%
%TO.N,GND*%
X107125000Y-60875000D03*
%TD*%
D15*
%TO.P,R16,1*%
%TO.N,/MCU C control*%
X120325000Y-115425000D03*
%TO.P,R16,2*%
%TO.N,GND*%
X117225000Y-115425000D03*
%TD*%
D10*
%TO.P,TP5,1,1*%
%TO.N,/MOTOR1_A_OUT*%
X108150000Y-78350000D03*
%TD*%
D16*
%TO.P,R17,1*%
%TO.N,Net-(U6-EN2)*%
X140950000Y-106651000D03*
%TO.P,R17,2*%
%TO.N,GND*%
X140950000Y-104651000D03*
%TD*%
D17*
%TO.P,IC1,1,VDD*%
%TO.N,Net-(IC1-VDD)*%
X103375000Y-120550000D03*
%TO.P,IC1,2,CFG2*%
%TO.N,unconnected-(IC1-CFG2-Pad2)*%
X103375000Y-121550000D03*
%TO.P,IC1,3,CFG3*%
%TO.N,unconnected-(IC1-CFG3-Pad3)*%
X103375000Y-122550000D03*
%TO.P,IC1,4,DP*%
%TO.N,Net-(IC1-DP)*%
X103375000Y-123550000D03*
%TO.P,IC1,5,DM*%
%TO.N,Net-(IC1-DM)*%
X103375000Y-124550000D03*
%TO.P,IC1,6,CC2*%
%TO.N,Net-(IC1-CC2)*%
X108875000Y-124550000D03*
%TO.P,IC1,7,CC1*%
%TO.N,Net-(IC1-CC1)*%
X108875000Y-123550000D03*
%TO.P,IC1,8,VBUS*%
%TO.N,Net-(IC1-VBUS)*%
X108875000Y-122550000D03*
%TO.P,IC1,9,CFG1*%
%TO.N,Net-(IC1-CFG1)*%
X108875000Y-121550000D03*
%TO.P,IC1,10,PG*%
%TO.N,unconnected-(IC1-PG-Pad10)*%
X108875000Y-120550000D03*
D18*
%TO.P,IC1,11,GND*%
%TO.N,GND*%
X106125000Y-122550000D03*
%TD*%
D14*
%TO.P,R18,1*%
%TO.N,Net-(C14-Pad2)*%
X141150000Y-112025000D03*
%TO.P,R18,2*%
%TO.N,Net-(U6-~{PGOOD})*%
X141150000Y-115125000D03*
%TD*%
D19*
%TO.P,R25,1*%
%TO.N,/Battery*%
X122345000Y-85175000D03*
%TO.P,R25,2*%
%TO.N,Net-(IC3-PG)*%
X121150000Y-85175000D03*
%TD*%
D20*
%TO.P,C15,1*%
%TO.N,GND*%
X136912500Y-62025000D03*
%TO.P,C15,2*%
%TO.N,/5V Out*%
X133787500Y-62025000D03*
%TD*%
D21*
%TO.P,R20,1*%
%TO.N,Net-(IC2-FB)*%
X129350000Y-68087500D03*
%TO.P,R20,2*%
%TO.N,/5V Out*%
X129350000Y-66262500D03*
%TD*%
D20*
%TO.P,C6,1*%
%TO.N,GND*%
X136037500Y-105901000D03*
%TO.P,C6,2*%
%TO.N,/HV*%
X132912500Y-105901000D03*
%TD*%
D22*
%TO.P,C8,1*%
%TO.N,/EXT_LOAD1_OUT*%
X116162500Y-92825000D03*
%TO.P,C8,2*%
%TO.N,GND*%
X119287500Y-92825000D03*
%TD*%
D23*
%TO.P,C21,1*%
%TO.N,GND*%
X126075000Y-70462500D03*
%TO.P,C21,2*%
%TO.N,Net-(IC2-VCC)*%
X126075000Y-68737500D03*
%TD*%
D24*
%TO.P,C11,1*%
%TO.N,/Battery*%
X100600000Y-84612500D03*
%TO.P,C11,2*%
%TO.N,GND*%
X100600000Y-86337500D03*
%TD*%
D15*
%TO.P,R8,1*%
%TO.N,/3V3 Out*%
X99425000Y-64275000D03*
%TO.P,R8,2*%
%TO.N,/I2C1_SCL*%
X96325000Y-64275000D03*
%TD*%
D10*
%TO.P,TP2,1,1*%
%TO.N,/EXT_LOAD2_OUT*%
X102950000Y-68700000D03*
%TD*%
%TO.P,TP1,1,1*%
%TO.N,/EXT_LOAD1_OUT*%
X121950000Y-95850000D03*
%TD*%
D25*
%TO.P,C17,1*%
%TO.N,GND*%
X140412500Y-66475000D03*
%TO.P,C17,2*%
%TO.N,Net-(IC2-COMP)*%
X142137500Y-66475000D03*
%TD*%
D26*
%TO.P,C13,1*%
%TO.N,GND*%
X145650000Y-122538500D03*
%TO.P,C13,2*%
%TO.N,/Battery*%
X145650000Y-119413500D03*
%TD*%
D14*
%TO.P,R14,1*%
%TO.N,Net-(C14-Pad2)*%
X125150000Y-117350000D03*
%TO.P,R14,2*%
%TO.N,Net-(U6-~{CHG})*%
X125150000Y-120450000D03*
%TD*%
D27*
%TO.P,IC3,1,EN*%
%TO.N,/Battery*%
X121275000Y-79125000D03*
%TO.P,IC3,2,MODE*%
%TO.N,GND*%
X121275000Y-79625000D03*
%TO.P,IC3,3,AGND*%
%TO.N,Net-(IC3-AGND)*%
X121275000Y-80125000D03*
%TO.P,IC3,4,FB*%
%TO.N,Net-(IC3-FB)*%
X121275000Y-80625000D03*
%TO.P,IC3,5,PG*%
%TO.N,Net-(IC3-PG)*%
X121275000Y-81125000D03*
D28*
%TO.P,IC3,6,VOUT*%
%TO.N,/3V3 Out*%
X122925000Y-81125000D03*
%TO.P,IC3,7,L2*%
%TO.N,Net-(IC3-L2)*%
X122925000Y-80625000D03*
D29*
%TO.P,IC3,8,GND*%
%TO.N,GND*%
X122725000Y-80125000D03*
D28*
%TO.P,IC3,9,L1*%
%TO.N,Net-(IC3-L1)*%
X122925000Y-79625000D03*
%TO.P,IC3,10,VIN*%
%TO.N,/Battery*%
X122925000Y-79125000D03*
%TD*%
D30*
%TO.P,R19,1*%
%TO.N,Net-(U6-TMR)*%
X127150000Y-111950000D03*
%TO.P,R19,2*%
%TO.N,GND*%
X127150000Y-113950000D03*
%TD*%
D31*
%TO.P,C10,1*%
%TO.N,/EXT_LOAD2_OUT*%
X99900000Y-71012500D03*
%TO.P,C10,2*%
%TO.N,GND*%
X99900000Y-74137500D03*
%TD*%
D26*
%TO.P,C14,1*%
%TO.N,GND*%
X145650000Y-115188500D03*
%TO.P,C14,2*%
%TO.N,Net-(C14-Pad2)*%
X145650000Y-112063500D03*
%TD*%
D14*
%TO.P,R13,1*%
%TO.N,/HV*%
X128575000Y-106725000D03*
%TO.P,R13,2*%
%TO.N,Net-(U6-ILIM)*%
X128575000Y-109825000D03*
%TD*%
D32*
%TO.P,R33,1*%
%TO.N,Net-(U6-TS)*%
X141300000Y-119201000D03*
%TO.P,R33,2*%
%TO.N,GND*%
X139300000Y-119201000D03*
%TD*%
D33*
%TO.P,C24,1*%
%TO.N,Net-(IC2-SW_1)*%
X145075000Y-72867500D03*
%TO.P,C24,2*%
%TO.N,Net-(IC2-BOOT)*%
X145075000Y-71732500D03*
%TD*%
D10*
%TO.P,TP3,1,1*%
%TO.N,/Battery*%
X130225000Y-100800000D03*
%TD*%
D34*
%TO.P,SW1,1,1*%
%TO.N,unconnected-(SW1-Pad1)*%
X133490700Y-85733400D03*
%TO.P,SW1,2,2*%
%TO.N,/Battery*%
X133490700Y-90433401D03*
%TO.P,SW1,3,3*%
X133490700Y-95133401D03*
%TD*%
D35*
%TO.P,IC2,1,VCC*%
%TO.N,Net-(IC2-VCC)*%
X132975000Y-69125000D03*
D36*
%TO.P,IC2,2,EN*%
%TO.N,/Battery*%
X133425000Y-70075000D03*
%TO.P,IC2,3,FSW*%
%TO.N,Net-(IC2-FSW)*%
X133925000Y-70075000D03*
%TO.P,IC2,4,SW_1*%
%TO.N,Net-(IC2-SW_1)*%
X134425000Y-70075000D03*
%TO.P,IC2,5,SW_2*%
X134925000Y-70075000D03*
%TO.P,IC2,6,SW_3*%
X135425000Y-70075000D03*
%TO.P,IC2,7,SW_4*%
X135925000Y-70075000D03*
%TO.P,IC2,8,BOOT*%
%TO.N,Net-(IC2-BOOT)*%
X136425000Y-70075000D03*
%TO.P,IC2,9,VBN*%
%TO.N,Net-(IC2-VBN)*%
X136925000Y-70075000D03*
D35*
%TO.P,IC2,10,SS*%
%TO.N,Net-(IC2-SS)*%
X137375000Y-69125000D03*
%TO.P,IC2,11,NC_1*%
%TO.N,unconnected-(IC2-NC_1-Pad11)*%
X137375000Y-67625000D03*
D36*
%TO.P,IC2,12,NC_2*%
%TO.N,unconnected-(IC2-NC_2-Pad12)*%
X136925000Y-66675000D03*
%TO.P,IC2,13,MODE*%
%TO.N,GND*%
X136425000Y-66675000D03*
%TO.P,IC2,14,VOUT_1*%
%TO.N,/5V Out*%
X135925000Y-66675000D03*
%TO.P,IC2,15,VOUT_2*%
X135425000Y-66675000D03*
%TO.P,IC2,16,VOUT_3*%
X134925000Y-66675000D03*
%TO.P,IC2,17,FB*%
%TO.N,Net-(IC2-FB)*%
X134425000Y-66675000D03*
%TO.P,IC2,18,COMP*%
%TO.N,Net-(IC2-COMP)*%
X133925000Y-66675000D03*
%TO.P,IC2,19,ILIM*%
%TO.N,Net-(IC2-ILIM)*%
X133425000Y-66675000D03*
D35*
%TO.P,IC2,20,AGND*%
%TO.N,GND*%
X132975000Y-67625000D03*
D37*
%TO.P,IC2,21,PGND*%
X135175000Y-68375000D03*
%TD*%
D38*
%TO.P,U4,1,OUT*%
%TO.N,/EXT_LOAD1_OUT*%
X117335000Y-95600000D03*
%TO.P,U4,2,GND*%
%TO.N,GND*%
X117335000Y-96100000D03*
%TO.P,U4,3,ON*%
%TO.N,/CTRL_EXT_LOAD1*%
X118925000Y-96100000D03*
%TO.P,U4,4,IN*%
%TO.N,/5V Out*%
X118925000Y-95600000D03*
D39*
%TO.P,U4,5,GND*%
%TO.N,GND*%
X118130000Y-95850000D03*
%TD*%
D40*
%TO.P,R23,1*%
%TO.N,Net-(IC2-ILIM)*%
X131150000Y-59097500D03*
%TO.P,R23,2*%
%TO.N,GND*%
X131150000Y-57902500D03*
%TD*%
D41*
%TO.P,J2,A1_B12*%
%TO.N,N/C*%
X98025000Y-124575000D03*
%TO.P,J2,A4_B9*%
X98025000Y-125375000D03*
D42*
%TO.P,J2,A5,CC1*%
%TO.N,Net-(IC1-CC1)*%
X98025000Y-126525000D03*
%TO.P,J2,A6,D+*%
%TO.N,Net-(IC1-DM)*%
X98025000Y-127525000D03*
%TO.P,J2,A7,D-*%
%TO.N,Net-(IC1-DP)*%
X98025000Y-128025000D03*
%TO.P,J2,A8,SBU1*%
%TO.N,unconnected-(J2-SBU1-PadA8)*%
X98025000Y-129025000D03*
D41*
%TO.P,J2,B1_A12*%
%TO.N,N/C*%
X98025000Y-130975000D03*
%TO.P,J2,B4_A9*%
X98025000Y-130175000D03*
D42*
%TO.P,J2,B5,CC2*%
%TO.N,Net-(IC1-CC2)*%
X98025000Y-129525000D03*
%TO.P,J2,B6,D+*%
%TO.N,Net-(IC1-DM)*%
X98025000Y-128525000D03*
%TO.P,J2,B7,D-*%
%TO.N,Net-(IC1-DP)*%
X98025000Y-127025000D03*
%TO.P,J2,B8,SBU2*%
%TO.N,unconnected-(J2-SBU2-PadB8)*%
X98025000Y-126025000D03*
D43*
%TO.P,J2,SH1*%
%TO.N,N/C*%
X97475000Y-123450000D03*
%TO.P,J2,SH2*%
X97475000Y-132100000D03*
D44*
%TO.P,J2,SH3*%
X93275000Y-123450000D03*
%TO.P,J2,SH4*%
X93275000Y-132100000D03*
%TD*%
D45*
%TO.P,R11,1*%
%TO.N,GND*%
X129200000Y-115425000D03*
%TO.P,R11,2*%
%TO.N,Net-(U6-ITERM)*%
X131025000Y-115425000D03*
%TD*%
D10*
%TO.P,3v3TP1,1,1*%
%TO.N,/3V3 Out*%
X121300000Y-74725000D03*
%TD*%
%TO.P,TP4,1,1*%
%TO.N,/5V Out*%
X142775000Y-58425000D03*
%TD*%
D46*
%TO.P,U1,1,~{SLEEP}*%
%TO.N,Net-(U1-~{SLEEP})*%
X108650000Y-82487500D03*
%TO.P,U1,2,AOUT1*%
%TO.N,/MOTOR1_A_OUT*%
X108000000Y-82487500D03*
%TO.P,U1,3,AISEN*%
%TO.N,GND*%
X107350000Y-82487500D03*
%TO.P,U1,4,AOUT2*%
%TO.N,/MOTOR1_B_OUT*%
X106700000Y-82487500D03*
%TO.P,U1,5,BOUT2*%
%TO.N,/Motor2_B_OUT*%
X106050000Y-82487500D03*
%TO.P,U1,6,BISEN*%
%TO.N,GND*%
X105400000Y-82487500D03*
%TO.P,U1,7,BOUT1*%
%TO.N,/Motor2_A_OUT*%
X104750000Y-82487500D03*
%TO.P,U1,8,~{FAULT}*%
%TO.N,unconnected-(U1-~{FAULT}-Pad8)*%
X104100000Y-82487500D03*
%TO.P,U1,9,BIN1*%
%TO.N,/MOTOR2_CTRL1*%
X104100000Y-88212500D03*
%TO.P,U1,10,BIN2*%
%TO.N,/MOTOR2_CTRL2*%
X104750000Y-88212500D03*
%TO.P,U1,11,VCP*%
%TO.N,Net-(U1-VCP)*%
X105400000Y-88212500D03*
%TO.P,U1,12,VM*%
%TO.N,/Battery*%
X106050000Y-88212500D03*
%TO.P,U1,13,GND*%
%TO.N,GND*%
X106700000Y-88212500D03*
%TO.P,U1,14,VINT*%
%TO.N,/Battery*%
X107350000Y-88212500D03*
%TO.P,U1,15,AIN2*%
%TO.N,/MOTOR1_CTRL2*%
X108000000Y-88212500D03*
%TO.P,U1,16,AIN1*%
%TO.N,/MOTOR1_CTRL1*%
X108650000Y-88212500D03*
D47*
%TO.P,U1,17,GND*%
%TO.N,GND*%
X106375000Y-85350000D03*
%TD*%
D40*
%TO.P,R21,1*%
%TO.N,GND*%
X125512500Y-65047500D03*
%TO.P,R21,2*%
%TO.N,Net-(IC2-FB)*%
X125512500Y-63852500D03*
%TD*%
D14*
%TO.P,R29,1*%
%TO.N,/Battery*%
X122650000Y-58050000D03*
%TO.P,R29,2*%
%TO.N,GND*%
X122650000Y-61150000D03*
%TD*%
D48*
%TO.P,U3,1,A1*%
%TO.N,/3V3 Out*%
X96735000Y-59125000D03*
%TO.P,U3,2,A0*%
%TO.N,GND*%
X96735000Y-59775000D03*
%TO.P,U3,3,SDA*%
%TO.N,/I2C1_SDA*%
X96735000Y-60425000D03*
%TO.P,U3,4,SCL*%
%TO.N,/I2C1_SCL*%
X96735000Y-61075000D03*
%TO.P,U3,5,VS*%
%TO.N,/3V3 Out*%
X99245000Y-61075000D03*
%TO.P,U3,6,GND*%
%TO.N,GND*%
X99245000Y-60425000D03*
%TO.P,U3,7,IN-*%
X99245000Y-59775000D03*
%TO.P,U3,8,IN+*%
%TO.N,/Battery*%
X99245000Y-59125000D03*
%TD*%
D20*
%TO.P,C2,1*%
%TO.N,/Battery*%
X108855000Y-112675000D03*
%TO.P,C2,2*%
%TO.N,GND*%
X105730000Y-112675000D03*
%TD*%
D49*
%TO.P,C12,1*%
%TO.N,/Battery*%
X102662500Y-78600000D03*
%TO.P,C12,2*%
%TO.N,Net-(U1-VCP)*%
X104737500Y-78600000D03*
%TD*%
D19*
%TO.P,R24,1*%
%TO.N,Net-(IC2-SW_1)*%
X144300000Y-75700000D03*
%TO.P,R24,2*%
%TO.N,Net-(IC2-FSW)*%
X143105000Y-75700000D03*
%TD*%
D14*
%TO.P,R30,1*%
%TO.N,/Battery*%
X115650000Y-57950000D03*
%TO.P,R30,2*%
%TO.N,GND*%
X115650000Y-61050000D03*
%TD*%
D50*
%TO.P,R7,1*%
%TO.N,Vbus*%
X116975000Y-125275000D03*
%TO.P,R7,2*%
%TO.N,VDD*%
X120075000Y-125275000D03*
%TD*%
D30*
%TO.P,R2,1*%
%TO.N,Net-(U1-~{SLEEP})*%
X111825000Y-84825000D03*
%TO.P,R2,2*%
%TO.N,/Battery*%
X111825000Y-86825000D03*
%TD*%
D51*
%TO.P,C23,1*%
%TO.N,GND*%
X128090000Y-62375000D03*
%TO.P,C23,2*%
%TO.N,Net-(IC2-VBN)*%
X129225000Y-62375000D03*
%TD*%
D52*
%TO.P,L1,1,1*%
%TO.N,Net-(IC2-SW_1)*%
X135650000Y-74400000D03*
%TO.P,L1,2,2*%
%TO.N,/Battery*%
X133900000Y-74400000D03*
%TD*%
D14*
%TO.P,R28,1*%
%TO.N,/Battery*%
X119625000Y-57950000D03*
%TO.P,R28,2*%
%TO.N,GND*%
X119625000Y-61050000D03*
%TD*%
D49*
%TO.P,C4,1*%
%TO.N,/Battery*%
X105412500Y-97950000D03*
%TO.P,C4,2*%
%TO.N,Net-(U2-VCP)*%
X107487500Y-97950000D03*
%TD*%
D31*
%TO.P,C25,1*%
%TO.N,/Battery*%
X128375000Y-78287500D03*
%TO.P,C25,2*%
%TO.N,GND*%
X128375000Y-81412500D03*
%TD*%
D53*
%TO.P,U6,1,TS*%
%TO.N,Net-(U6-TS)*%
X134425000Y-113125000D03*
%TO.P,U6,2,BAT*%
%TO.N,/Battery*%
X134425000Y-113625000D03*
%TO.P,U6,3,BAT*%
%TO.N,unconnected-(U6-BAT-Pad3)*%
X134425000Y-114125000D03*
%TO.P,U6,4,~{CE}*%
%TO.N,Net-(U6-~{CE})*%
X134425000Y-114625000D03*
D54*
%TO.P,U6,5,EN2*%
%TO.N,Net-(U6-EN2)*%
X135125000Y-115325000D03*
%TO.P,U6,6,EN1*%
%TO.N,/MCU C control*%
X135625000Y-115325000D03*
%TO.P,U6,7,~{PGOOD}*%
%TO.N,Net-(U6-~{PGOOD})*%
X136125000Y-115325000D03*
%TO.P,U6,8,VSS*%
%TO.N,GND*%
X136625000Y-115325000D03*
D53*
%TO.P,U6,9,~{CHG}*%
%TO.N,Net-(U6-~{CHG})*%
X137325000Y-114625000D03*
%TO.P,U6,10,OUT*%
%TO.N,Net-(C14-Pad2)*%
X137325000Y-114125000D03*
%TO.P,U6,11,OUT*%
X137325000Y-113625000D03*
%TO.P,U6,12,ILIM*%
%TO.N,Net-(U6-ILIM)*%
X137325000Y-113125000D03*
D54*
%TO.P,U6,13,IN*%
%TO.N,/HV*%
X136625000Y-112425000D03*
%TO.P,U6,14,TMR*%
%TO.N,Net-(U6-TMR)*%
X136125000Y-112425000D03*
%TO.P,U6,15,ITERM*%
%TO.N,Net-(U6-ITERM)*%
X135625000Y-112425000D03*
%TO.P,U6,16,ISET*%
%TO.N,Net-(U6-ISET)*%
X135125000Y-112425000D03*
D55*
%TO.P,U6,17,VSS*%
%TO.N,unconnected-(U6-VSS-Pad17)*%
X135875000Y-113875000D03*
%TD*%
D20*
%TO.P,C16,1*%
%TO.N,GND*%
X136862500Y-57975000D03*
%TO.P,C16,2*%
%TO.N,/5V Out*%
X133737500Y-57975000D03*
%TD*%
D56*
%TO.P,R10,1*%
%TO.N,Net-(IC1-VBUS)*%
X111900000Y-122300000D03*
%TO.P,R10,2*%
%TO.N,/HV*%
X113900000Y-122300000D03*
%TD*%
D22*
%TO.P,C19,1*%
%TO.N,GND*%
X139687500Y-61950000D03*
%TO.P,C19,2*%
%TO.N,/5V Out*%
X142812500Y-61950000D03*
%TD*%
D25*
%TO.P,C22,1*%
%TO.N,GND*%
X140487500Y-69275000D03*
%TO.P,C22,2*%
%TO.N,Net-(IC2-SS)*%
X142212500Y-69275000D03*
%TD*%
D38*
%TO.P,U5,1,OUT*%
%TO.N,/EXT_LOAD2_OUT*%
X104705000Y-71450000D03*
%TO.P,U5,2,GND*%
%TO.N,GND*%
X104705000Y-71950000D03*
%TO.P,U5,3,ON*%
%TO.N,/CTRL_EXT_LOAD2*%
X106295000Y-71950000D03*
%TO.P,U5,4,IN*%
%TO.N,/5V Out*%
X106295000Y-71450000D03*
D39*
%TO.P,U5,5,GND*%
%TO.N,GND*%
X105500000Y-71700000D03*
%TD*%
D40*
%TO.P,R27,1*%
%TO.N,Net-(IC3-FB)*%
X117275000Y-85372500D03*
%TO.P,R27,2*%
%TO.N,Net-(IC3-AGND)*%
X117275000Y-84177500D03*
%TD*%
D14*
%TO.P,R3,1*%
%TO.N,/Battery*%
X102600000Y-58075000D03*
%TO.P,R3,2*%
%TO.N,GND*%
X102600000Y-61175000D03*
%TD*%
D57*
%TO.P,L2,1,1*%
%TO.N,Net-(IC3-L1)*%
X116700000Y-79325000D03*
%TO.P,L2,2,2*%
%TO.N,Net-(IC3-L2)*%
X116700000Y-81075000D03*
%TD*%
D31*
%TO.P,C18,1*%
%TO.N,GND*%
X139300000Y-72712500D03*
%TO.P,C18,2*%
%TO.N,Net-(C18-Pad2)*%
X139300000Y-75837500D03*
%TD*%
D19*
%TO.P,R22,1*%
%TO.N,Net-(IC2-COMP)*%
X146657500Y-68050000D03*
%TO.P,R22,2*%
%TO.N,Net-(C18-Pad2)*%
X145462500Y-68050000D03*
%TD*%
D58*
%TO.P,J1,1,Pin_1*%
%TO.N,/Motor2_B_OUT*%
X92150000Y-75310000D03*
D59*
%TO.P,J1,2,Pin_2*%
%TO.N,/Motor2_A_OUT*%
X94690000Y-75310000D03*
%TO.P,J1,3,Pin_3*%
%TO.N,/Motor4_A_OUT*%
X92150000Y-77850000D03*
%TO.P,J1,4,Pin_4*%
%TO.N,/MOTOR2_CTRL1*%
X94690000Y-77850000D03*
%TO.P,J1,5,Pin_5*%
%TO.N,/Motor4_B_OUT*%
X92150000Y-80390000D03*
%TO.P,J1,6,Pin_6*%
%TO.N,/MOTOR2_CTRL2*%
X94690000Y-80390000D03*
%TO.P,J1,7,Pin_7*%
%TO.N,/CTRL_EXT_LOAD2*%
X92150000Y-82930000D03*
%TO.P,J1,8,Pin_8*%
%TO.N,/MOTOR4_CTRL1*%
X94690000Y-82930000D03*
%TO.P,J1,9,Pin_9*%
%TO.N,/USART2_RX*%
X92150000Y-85470000D03*
%TO.P,J1,10,Pin_10*%
%TO.N,/MOTOR4_CTRL2*%
X94690000Y-85470000D03*
%TO.P,J1,11,Pin_11*%
%TO.N,/EXT_LOAD2_OUT*%
X92150000Y-88010000D03*
%TO.P,J1,12,Pin_12*%
%TO.N,/USART2_TX*%
X94690000Y-88010000D03*
%TO.P,J1,13,Pin_13*%
%TO.N,/MCU C control*%
X92150000Y-90550000D03*
%TO.P,J1,14,Pin_14*%
%TO.N,/Battery*%
X94690000Y-90550000D03*
%TO.P,J1,15,Pin_15*%
%TO.N,unconnected-(J1-Pin_15-Pad15)*%
X92150000Y-93090000D03*
%TO.P,J1,16,Pin_16*%
%TO.N,/I2C1_SCL*%
X94690000Y-93090000D03*
%TO.P,J1,17,Pin_17*%
%TO.N,/I2C1_SDA*%
X92150000Y-95630000D03*
%TO.P,J1,18,Pin_18*%
%TO.N,/3V3 Out*%
X94690000Y-95630000D03*
%TO.P,J1,19,Pin_19*%
%TO.N,GND*%
X92150000Y-98170000D03*
%TO.P,J1,20,Pin_20*%
%TO.N,/5V Out*%
X94690000Y-98170000D03*
%TO.P,J1,21,Pin_21*%
%TO.N,/EXT_LOAD1_OUT*%
X92150000Y-100710000D03*
%TO.P,J1,22,Pin_22*%
%TO.N,/HV*%
X94690000Y-100710000D03*
%TO.P,J1,23,Pin_23*%
%TO.N,GND*%
X92150000Y-103250000D03*
%TO.P,J1,24,Pin_24*%
%TO.N,/MOTOR3_CTRL1*%
X94690000Y-103250000D03*
%TO.P,J1,25,Pin_25*%
%TO.N,/CTRL_EXT_LOAD1*%
X92150000Y-105790000D03*
%TO.P,J1,26,Pin_26*%
%TO.N,/MOTOR3_CTRL2*%
X94690000Y-105790000D03*
%TO.P,J1,27,Pin_27*%
%TO.N,/MOTOR3_A_OUT*%
X92150000Y-108330000D03*
%TO.P,J1,28,Pin_28*%
%TO.N,/MOTOR1_CTRL1*%
X94690000Y-108330000D03*
%TO.P,J1,29,Pin_29*%
%TO.N,/MOTOR3_B_OUT*%
X92150000Y-110870000D03*
%TO.P,J1,30,Pin_30*%
%TO.N,/MOTOR1_CTRL2*%
X94690000Y-110870000D03*
%TO.P,J1,31,Pin_31*%
%TO.N,/MOTOR1_B_OUT*%
X92150000Y-113410000D03*
%TO.P,J1,32,Pin_32*%
%TO.N,/MOTOR1_A_OUT*%
X94690000Y-113410000D03*
%TD*%
D60*
%TO.P,MCUTP1,1,1*%
%TO.N,/MCU C control*%
X129350000Y-127375000D03*
%TD*%
D16*
%TO.P,R15,1*%
%TO.N,Net-(U6-~{CE})*%
X145525000Y-107401000D03*
%TO.P,R15,2*%
%TO.N,GND*%
X145525000Y-105401000D03*
%TD*%
D31*
%TO.P,C9,1*%
%TO.N,/5V Out*%
X110700000Y-71412500D03*
%TO.P,C9,2*%
%TO.N,GND*%
X110700000Y-74537500D03*
%TD*%
D30*
%TO.P,R6,1*%
%TO.N,Net-(U2-~{SLEEP})*%
X98200000Y-105025000D03*
%TO.P,R6,2*%
%TO.N,/Battery*%
X98200000Y-107025000D03*
%TD*%
D22*
%TO.P,C20,1*%
%TO.N,GND*%
X127262500Y-72625000D03*
%TO.P,C20,2*%
%TO.N,/5V Out*%
X130387500Y-72625000D03*
%TD*%
%TO.P,C1,1*%
%TO.N,/Battery*%
X103970000Y-93300000D03*
%TO.P,C1,2*%
%TO.N,GND*%
X107095000Y-93300000D03*
%TD*%
D61*
%TO.P,U2,1,~{SLEEP}*%
%TO.N,Net-(U2-~{SLEEP})*%
X104075000Y-108612500D03*
%TO.P,U2,2,AOUT1*%
%TO.N,/MOTOR3_A_OUT*%
X104725000Y-108612500D03*
%TO.P,U2,3,AISEN*%
%TO.N,GND*%
X105375000Y-108612500D03*
%TO.P,U2,4,AOUT2*%
%TO.N,/MOTOR3_B_OUT*%
X106025000Y-108612500D03*
%TO.P,U2,5,BOUT2*%
%TO.N,/Motor4_B_OUT*%
X106675000Y-108612500D03*
%TO.P,U2,6,BISEN*%
%TO.N,GND*%
X107325000Y-108612500D03*
%TO.P,U2,7,BOUT1*%
%TO.N,/Motor4_A_OUT*%
X107975000Y-108612500D03*
%TO.P,U2,8,~{FAULT}*%
%TO.N,unconnected-(U2-~{FAULT}-Pad8)*%
X108625000Y-108612500D03*
%TO.P,U2,9,BIN1*%
%TO.N,/MOTOR4_CTRL1*%
X108625000Y-102887500D03*
%TO.P,U2,10,BIN2*%
%TO.N,/MOTOR4_CTRL2*%
X107975000Y-102887500D03*
%TO.P,U2,11,VCP*%
%TO.N,Net-(U2-VCP)*%
X107325000Y-102887500D03*
%TO.P,U2,12,VM*%
%TO.N,/Battery*%
X106675000Y-102887500D03*
%TO.P,U2,13,GND*%
%TO.N,GND*%
X106025000Y-102887500D03*
%TO.P,U2,14,VINT*%
%TO.N,/Battery*%
X105375000Y-102887500D03*
%TO.P,U2,15,AIN2*%
%TO.N,/MOTOR3_CTRL2*%
X104725000Y-102887500D03*
%TO.P,U2,16,AIN1*%
%TO.N,/MOTOR3_CTRL1*%
X104075000Y-102887500D03*
D47*
%TO.P,U2,17,GND*%
%TO.N,GND*%
X106350000Y-105750000D03*
%TD*%
D23*
%TO.P,C5,1*%
%TO.N,/Battery*%
X112700000Y-107287500D03*
%TO.P,C5,2*%
%TO.N,GND*%
X112700000Y-105562500D03*
%TD*%
D14*
%TO.P,R5,1*%
%TO.N,/3V3 Out*%
X91750000Y-58075000D03*
%TO.P,R5,2*%
%TO.N,/I2C1_SDA*%
X91750000Y-61175000D03*
%TD*%
D31*
%TO.P,C3,1*%
%TO.N,VDD*%
X116800000Y-129737500D03*
%TO.P,C3,2*%
%TO.N,Net-(IC1-VDD)*%
X116800000Y-132862500D03*
%TD*%
D14*
%TO.P,R31,1*%
%TO.N,/Battery*%
X111575000Y-57750000D03*
%TO.P,R31,2*%
%TO.N,GND*%
X111575000Y-60850000D03*
%TD*%
D22*
%TO.P,C26,1*%
%TO.N,/3V3 Out*%
X125525000Y-86825000D03*
%TO.P,C26,2*%
%TO.N,GND*%
X128650000Y-86825000D03*
%TD*%
D20*
%TO.P,C7,1*%
%TO.N,/5V Out*%
X119787500Y-99150000D03*
%TO.P,C7,2*%
%TO.N,GND*%
X116662500Y-99150000D03*
%TD*%
D56*
%TO.P,R9,1*%
%TO.N,GND*%
X105575000Y-131550000D03*
%TO.P,R9,2*%
%TO.N,Net-(IC1-CFG1)*%
X107575000Y-131550000D03*
%TD*%
D13*
%TO.P,R26,1*%
%TO.N,/3V3 Out*%
X117025000Y-74675000D03*
%TO.P,R26,2*%
%TO.N,Net-(IC3-FB)*%
X115200000Y-74675000D03*
%TD*%
D62*
%TO.N,Net-(U6-~{CHG})*%
X138265700Y-114864900D03*
X126547900Y-120125900D03*
%TO.N,/Motor4_B_OUT*%
X111207700Y-88098400D03*
%TO.N,/Motor4_A_OUT*%
X93301700Y-91820000D03*
X110153800Y-93250100D03*
%TO.N,/MOTOR1_CTRL1*%
X110248100Y-107696300D03*
%TO.N,Net-(IC2-COMP)*%
X133925000Y-65086000D03*
X142137500Y-65086000D03*
%TO.N,Net-(C14-Pad2)*%
X126548300Y-117350000D03*
X141188500Y-113360800D03*
X138275700Y-113360800D03*
%TO.N,Net-(U6-EN2)*%
X135127200Y-117191400D03*
X139769700Y-115799100D03*
%TO.N,Net-(U6-~{CE})*%
X134425000Y-119503000D03*
X146663500Y-113619900D03*
%TO.N,Net-(IC1-VDD)*%
X114091300Y-127108200D03*
X104581300Y-127108200D03*
%TO.N,/MOTOR2_CTRL1*%
X95458600Y-86621700D03*
X103365500Y-86553300D03*
%TO.N,/MOTOR1_A_OUT*%
X99120100Y-80215100D03*
X108147800Y-80018200D03*
%TO.N,/MOTOR1_CTRL2*%
X96889600Y-106831700D03*
X108414800Y-99028600D03*
%TO.N,/MOTOR3_B_OUT*%
X106025000Y-110681600D03*
%TO.N,/MOTOR3_CTRL2*%
X103564700Y-101750300D03*
%TO.N,/MOTOR1_B_OUT*%
X98475700Y-81092100D03*
X106700000Y-79399700D03*
%TO.N,/MCU C control*%
X135392200Y-120786200D03*
X120194100Y-94964300D03*
%TO.N,/Motor2_B_OUT*%
X106252100Y-78281600D03*
%TO.N,/CTRL_EXT_LOAD1*%
X118925000Y-97001400D03*
%TO.N,/MOTOR4_CTRL2*%
X109149500Y-90961300D03*
%TO.N,/CTRL_EXT_LOAD2*%
X106295000Y-73837700D03*
%TO.N,/MOTOR2_CTRL2*%
X102981400Y-82285300D03*
%TO.N,/Motor2_A_OUT*%
X105638000Y-76050600D03*
%TO.N,/MOTOR3_A_OUT*%
X101350000Y-109713700D03*
%TO.N,/MOTOR3_CTRL1*%
X101161000Y-98175400D03*
%TO.N,/MOTOR4_CTRL1*%
X109735200Y-90398300D03*
%TO.N,Net-(IC2-ILIM)*%
X130363800Y-65143700D03*
X133118400Y-65143700D03*
%TO.N,Net-(IC1-CC1)*%
X96952700Y-126499000D03*
X107414800Y-124716500D03*
%TO.N,Net-(IC2-VBN)*%
X137498700Y-70871700D03*
X127294500Y-65745400D03*
%TO.N,/EXT_LOAD2_OUT*%
X97418000Y-84083700D03*
%TO.N,/EXT_LOAD1_OUT*%
X116278700Y-95827100D03*
%TO.N,/5V Out*%
X119787500Y-97196700D03*
X114091300Y-95198700D03*
X113255400Y-66374300D03*
X128371700Y-66374300D03*
X142812500Y-59987000D03*
%TO.N,/HV*%
X113900000Y-107075500D03*
X128575000Y-107896200D03*
X135611000Y-110641700D03*
%TO.N,/Battery*%
X98933300Y-90550000D03*
X103970000Y-90550000D03*
X107350000Y-90550000D03*
X120863800Y-91568800D03*
X111826300Y-91568800D03*
X134542400Y-120511800D03*
X142745500Y-122318100D03*
X120463200Y-79305200D03*
X128375000Y-77115900D03*
X108855000Y-118376200D03*
X125832300Y-78319100D03*
%TO.N,GND*%
X100052700Y-98424500D03*
X107487400Y-96399700D03*
%TO.N,/3V3 Out*%
X96785300Y-75000100D03*
X117025000Y-75665600D03*
X89715800Y-72295600D03*
%TD*%
D63*
%TO.N,Net-(U6-TS)*%
X140283100Y-118184100D02*
X141300000Y-119201000D01*
X138721700Y-118184100D02*
X140283100Y-118184100D01*
X138351600Y-118554200D02*
X138721700Y-118184100D01*
X138351600Y-118677700D02*
X138351600Y-118554200D01*
X135641400Y-121387900D02*
X138351600Y-118677700D01*
X134550800Y-121387900D02*
X135641400Y-121387900D01*
X133257600Y-120094700D02*
X134550800Y-121387900D01*
X133257600Y-113402200D02*
X133257600Y-120094700D01*
X133534800Y-113125000D02*
X133257600Y-113402200D01*
X134425000Y-113125000D02*
X133534800Y-113125000D01*
%TO.N,Net-(U6-~{PGOOD})*%
X136125000Y-115325000D02*
X136125000Y-116051700D01*
X141150000Y-115269700D02*
X141150000Y-115125000D01*
X140018900Y-116400800D02*
X141150000Y-115269700D01*
X136474100Y-116400800D02*
X140018900Y-116400800D01*
X136125000Y-116051700D02*
X136474100Y-116400800D01*
%TO.N,Net-(U6-~{CHG})*%
X125474100Y-120125900D02*
X125150000Y-120450000D01*
X126547900Y-120125900D02*
X125474100Y-120125900D01*
X137325000Y-114625000D02*
X138051700Y-114625000D01*
X138051700Y-114650900D02*
X138265700Y-114864900D01*
X138051700Y-114625000D02*
X138051700Y-114650900D01*
%TO.N,Net-(U2-~{SLEEP})*%
X101787500Y-108612500D02*
X104075000Y-108612500D01*
X98200000Y-105025000D02*
X101787500Y-108612500D01*
%TO.N,/Motor4_B_OUT*%
X111207700Y-108038200D02*
X111207700Y-88098400D01*
X109069700Y-110176200D02*
X111207700Y-108038200D01*
X107496100Y-110176200D02*
X109069700Y-110176200D01*
X106675000Y-109355100D02*
X107496100Y-110176200D01*
X106675000Y-108612500D02*
X106675000Y-109355100D01*
%TO.N,/Motor4_A_OUT*%
X107975000Y-109392100D02*
X107975000Y-108612500D01*
X108310000Y-109727100D02*
X107975000Y-109392100D01*
X108866600Y-109727100D02*
X108310000Y-109727100D01*
X109204500Y-109389200D02*
X108866600Y-109727100D01*
X109204500Y-103454600D02*
X109204500Y-109389200D01*
X110153800Y-102505300D02*
X109204500Y-103454600D01*
X110153800Y-93250100D02*
X110153800Y-102505300D01*
X92150000Y-77850000D02*
X92150000Y-79001700D01*
X93301700Y-87514300D02*
X93301700Y-91820000D01*
X92527400Y-86740000D02*
X93301700Y-87514300D01*
X91754600Y-86740000D02*
X92527400Y-86740000D01*
X90998300Y-85983700D02*
X91754600Y-86740000D01*
X90998300Y-79906000D02*
X90998300Y-85983700D01*
X91902600Y-79001700D02*
X90998300Y-79906000D01*
X92150000Y-79001700D02*
X91902600Y-79001700D01*
%TO.N,/MOTOR1_CTRL1*%
X110354600Y-89917100D02*
X108650000Y-88212500D01*
X110354600Y-92600100D02*
X110354600Y-89917100D01*
X110354700Y-92600100D02*
X110354600Y-92600100D01*
X110755500Y-93000900D02*
X110354700Y-92600100D01*
X110755500Y-107188900D02*
X110755500Y-93000900D01*
X110248100Y-107696300D02*
X110755500Y-107188900D01*
%TO.N,Net-(IC3-L1)*%
X122925000Y-79625000D02*
X123676700Y-79625000D01*
X123676700Y-78772600D02*
X123676700Y-79625000D01*
X123602400Y-78698300D02*
X123676700Y-78772600D01*
X117326700Y-78698300D02*
X123602400Y-78698300D01*
X116700000Y-79325000D02*
X117326700Y-78698300D01*
%TO.N,Net-(IC3-PG)*%
X121275000Y-85050000D02*
X121150000Y-85175000D01*
X121275000Y-81125000D02*
X121275000Y-85050000D01*
%TO.N,Net-(IC3-L2)*%
X122925000Y-80625000D02*
X123676700Y-80625000D01*
X124085300Y-80216400D02*
X123676700Y-80625000D01*
X124085300Y-78613200D02*
X124085300Y-80216400D01*
X123701600Y-78229500D02*
X124085300Y-78613200D01*
X116465300Y-78229500D02*
X123701600Y-78229500D01*
X115862200Y-78832600D02*
X116465300Y-78229500D01*
X115862200Y-80237200D02*
X115862200Y-78832600D01*
X116700000Y-81075000D02*
X115862200Y-80237200D01*
%TO.N,Net-(IC3-FB)*%
X117278700Y-85368800D02*
X117275000Y-85372500D01*
X117278700Y-85279600D02*
X117278700Y-85368800D01*
X120271600Y-82286700D02*
X117278700Y-85279600D01*
X120271600Y-81276700D02*
X120271600Y-82286700D01*
X120923300Y-80625000D02*
X120271600Y-81276700D01*
X121275000Y-80625000D02*
X120923300Y-80625000D01*
X115200000Y-83200900D02*
X115200000Y-74675000D01*
X117278700Y-85279600D02*
X115200000Y-83200900D01*
%TO.N,Net-(IC2-FSW)*%
X141162300Y-77642700D02*
X143105000Y-75700000D01*
X137567400Y-77642700D02*
X141162300Y-77642700D01*
X134775000Y-74850300D02*
X137567400Y-77642700D01*
X134775000Y-73873000D02*
X134775000Y-74850300D01*
X133925000Y-73023000D02*
X134775000Y-73873000D01*
X133925000Y-70075000D02*
X133925000Y-73023000D01*
%TO.N,Net-(IC1-VBUS)*%
X108875000Y-122550000D02*
X107873300Y-122550000D01*
X111900000Y-122083600D02*
X111900000Y-122300000D01*
X109673600Y-119857200D02*
X111900000Y-122083600D01*
X108055700Y-119857200D02*
X109673600Y-119857200D01*
X107873300Y-120039600D02*
X108055700Y-119857200D01*
X107873300Y-122550000D02*
X107873300Y-120039600D01*
%TO.N,Net-(IC1-CFG1)*%
X108875000Y-121550000D02*
X109876700Y-121550000D01*
X109876700Y-129248300D02*
X109876700Y-121550000D01*
X107575000Y-131550000D02*
X109876700Y-129248300D01*
%TO.N,Net-(IC2-SW_1)*%
X135925000Y-70075000D02*
X135425000Y-70075000D01*
X135425000Y-70075000D02*
X134925000Y-70075000D01*
X134925000Y-70075000D02*
X134425000Y-70075000D01*
X135425000Y-74175000D02*
X135650000Y-74400000D01*
X135425000Y-70075000D02*
X135425000Y-74175000D01*
X144300000Y-73642500D02*
X144300000Y-75077700D01*
X145075000Y-72867500D02*
X144300000Y-73642500D01*
X144300000Y-75077700D02*
X144300000Y-75700000D01*
X142665800Y-75077700D02*
X144300000Y-75077700D01*
X140502500Y-77241000D02*
X142665800Y-75077700D01*
X138207000Y-77241000D02*
X140502500Y-77241000D01*
X135650000Y-74684000D02*
X138207000Y-77241000D01*
X135650000Y-74400000D02*
X135650000Y-74684000D01*
%TO.N,Net-(IC2-BOOT)*%
X136425000Y-72495900D02*
X136425000Y-70075000D01*
X137881100Y-73952000D02*
X136425000Y-72495900D01*
X137881100Y-76277600D02*
X137881100Y-73952000D01*
X138442800Y-76839300D02*
X137881100Y-76277600D01*
X140142200Y-76839300D02*
X138442800Y-76839300D01*
X142624300Y-74357200D02*
X140142200Y-76839300D01*
X142624300Y-74183200D02*
X142624300Y-74357200D01*
X145075000Y-71732500D02*
X142624300Y-74183200D01*
%TO.N,Net-(IC2-VCC)*%
X132975000Y-69125000D02*
X132178300Y-69125000D01*
X132178300Y-73291500D02*
X132178300Y-69125000D01*
X131169400Y-74300400D02*
X132178300Y-73291500D01*
X129578400Y-74300400D02*
X131169400Y-74300400D01*
X128840700Y-73562700D02*
X129578400Y-74300400D01*
X128840700Y-71503200D02*
X128840700Y-73562700D01*
X126075000Y-68737500D02*
X128840700Y-71503200D01*
%TO.N,Net-(IC2-COMP)*%
X145082500Y-66475000D02*
X146657500Y-68050000D01*
X142137500Y-66475000D02*
X145082500Y-66475000D01*
X142137500Y-66475000D02*
X142137500Y-65086000D01*
X133925000Y-66675000D02*
X133925000Y-65086000D01*
%TO.N,Net-(C14-Pad2)*%
X145650000Y-112063500D02*
X141188500Y-112063500D01*
X125150000Y-117350000D02*
X126548300Y-117350000D01*
X141188500Y-112063500D02*
X141150000Y-112025000D01*
X141188500Y-112063500D02*
X141188500Y-113360800D01*
X137325000Y-113625000D02*
X137325000Y-114125000D01*
X138051700Y-113584800D02*
X138275700Y-113360800D01*
X138051700Y-113625000D02*
X138051700Y-113584800D01*
X137325000Y-113625000D02*
X138051700Y-113625000D01*
%TO.N,Net-(U6-TMR)*%
X127838800Y-111261200D02*
X127150000Y-111950000D01*
X135799200Y-111261200D02*
X127838800Y-111261200D01*
X136125000Y-111587000D02*
X135799200Y-111261200D01*
X136125000Y-112425000D02*
X136125000Y-111587000D01*
%TO.N,Net-(U6-EN2)*%
X135127200Y-116053900D02*
X135127200Y-117191400D01*
X135125000Y-116051700D02*
X135127200Y-116053900D01*
X139769700Y-107831300D02*
X140950000Y-106651000D01*
X139769700Y-115799100D02*
X139769700Y-107831300D01*
X135125000Y-115325000D02*
X135125000Y-116051700D01*
%TO.N,Net-(U6-~{CE})*%
X146863800Y-108739800D02*
X145525000Y-107401000D01*
X146863800Y-113419600D02*
X146863800Y-108739800D01*
X146663500Y-113619900D02*
X146863800Y-113419600D01*
X134425000Y-114625000D02*
X134425000Y-119503000D01*
%TO.N,Net-(U6-ILIM)*%
X135660800Y-109825000D02*
X128575000Y-109825000D01*
X137325000Y-111489200D02*
X135660800Y-109825000D01*
X137325000Y-113125000D02*
X137325000Y-111489200D01*
%TO.N,Net-(U6-ISET)*%
X132855900Y-120269400D02*
X134962500Y-122376000D01*
X132855900Y-113171700D02*
X132855900Y-120269400D01*
X133602600Y-112425000D02*
X132855900Y-113171700D01*
X135125000Y-112425000D02*
X133602600Y-112425000D01*
%TO.N,Net-(U6-ITERM)*%
X135625000Y-112425000D02*
X135625000Y-111698300D01*
X131025000Y-114431000D02*
X131025000Y-115425000D01*
X133757700Y-111698300D02*
X131025000Y-114431000D01*
X135625000Y-111698300D02*
X133757700Y-111698300D01*
%TO.N,Net-(U2-VCP)*%
X107325000Y-98112500D02*
X107487500Y-97950000D01*
X107325000Y-102887500D02*
X107325000Y-98112500D01*
%TO.N,Net-(U1-~{SLEEP})*%
X109487500Y-82487500D02*
X111825000Y-84825000D01*
X108650000Y-82487500D02*
X109487500Y-82487500D01*
%TO.N,Net-(IC1-VDD)*%
X104581300Y-120754600D02*
X104376700Y-120550000D01*
X104581300Y-127108200D02*
X104581300Y-120754600D01*
X103375000Y-120550000D02*
X104376700Y-120550000D01*
X114091300Y-130153800D02*
X114091300Y-127108200D01*
X116800000Y-132862500D02*
X114091300Y-130153800D01*
%TO.N,/MOTOR2_CTRL1*%
X94690000Y-77850000D02*
X94690000Y-79001700D01*
X94176800Y-86621700D02*
X95458600Y-86621700D01*
X93486900Y-85931800D02*
X94176800Y-86621700D01*
X93486900Y-79916900D02*
X93486900Y-85931800D01*
X94402100Y-79001700D02*
X93486900Y-79916900D01*
X94690000Y-79001700D02*
X94402100Y-79001700D01*
X103365500Y-87478000D02*
X103365500Y-86553300D01*
X104100000Y-88212500D02*
X103365500Y-87478000D01*
%TO.N,/MOTOR1_A_OUT*%
X108150000Y-78350000D02*
X108150000Y-79151700D01*
X94690000Y-113410000D02*
X94690000Y-112258300D01*
X108147800Y-79153900D02*
X108147800Y-80018200D01*
X108150000Y-79151700D02*
X108147800Y-79153900D01*
X108000000Y-80166000D02*
X108147800Y-80018200D01*
X108000000Y-82487500D02*
X108000000Y-80166000D01*
X99120100Y-84215700D02*
X99120100Y-80215100D01*
X98185500Y-85150300D02*
X99120100Y-84215700D01*
X98185500Y-93335000D02*
X98185500Y-85150300D01*
X96571500Y-94949000D02*
X98185500Y-93335000D01*
X96571500Y-105548200D02*
X96571500Y-94949000D01*
X95059700Y-107060000D02*
X96571500Y-105548200D01*
X94271600Y-107060000D02*
X95059700Y-107060000D01*
X93479900Y-107851700D02*
X94271600Y-107060000D01*
X93479900Y-111336100D02*
X93479900Y-107851700D01*
X94402100Y-112258300D02*
X93479900Y-111336100D01*
X94690000Y-112258300D02*
X94402100Y-112258300D01*
%TO.N,/MOTOR1_CTRL2*%
X96889600Y-107806600D02*
X96889600Y-106831700D01*
X94977900Y-109718300D02*
X96889600Y-107806600D01*
X94690000Y-109718300D02*
X94977900Y-109718300D01*
X94690000Y-110870000D02*
X94690000Y-109718300D01*
X108000000Y-89035100D02*
X108000000Y-88212500D01*
X108414800Y-89449900D02*
X108000000Y-89035100D01*
X108414800Y-99028600D02*
X108414800Y-89449900D01*
%TO.N,/MOTOR3_B_OUT*%
X106025000Y-108612500D02*
X106025000Y-110681600D01*
%TO.N,/I2C1_SDA*%
X92150000Y-95630000D02*
X92150000Y-94478300D01*
X92500000Y-60425000D02*
X91750000Y-61175000D01*
X96735000Y-60425000D02*
X92500000Y-60425000D01*
X91862000Y-94478300D02*
X92150000Y-94478300D01*
X90596600Y-93212900D02*
X91862000Y-94478300D01*
X90596600Y-62328400D02*
X90596600Y-93212900D01*
X91750000Y-61175000D02*
X90596600Y-62328400D01*
%TO.N,/MOTOR3_CTRL2*%
X103564700Y-101750400D02*
X103564700Y-101750300D01*
X104326500Y-101750400D02*
X103564700Y-101750400D01*
X104725000Y-102148900D02*
X104326500Y-101750400D01*
X104725000Y-102887500D02*
X104725000Y-102148900D01*
%TO.N,/MOTOR1_B_OUT*%
X98475700Y-84291900D02*
X98475700Y-81092100D01*
X97185500Y-85582100D02*
X98475700Y-84291900D01*
X97185500Y-93503100D02*
X97185500Y-85582100D01*
X95969900Y-94718700D02*
X97185500Y-93503100D01*
X95969900Y-103652200D02*
X95969900Y-94718700D01*
X95102100Y-104520000D02*
X95969900Y-103652200D01*
X94271600Y-104520000D02*
X95102100Y-104520000D01*
X93420000Y-105371600D02*
X94271600Y-104520000D01*
X93420000Y-106208300D02*
X93420000Y-105371600D01*
X92568300Y-107060000D02*
X93420000Y-106208300D01*
X91767000Y-107060000D02*
X92568300Y-107060000D01*
X90969000Y-107858000D02*
X91767000Y-107060000D01*
X90969000Y-111365200D02*
X90969000Y-107858000D01*
X91862100Y-112258300D02*
X90969000Y-111365200D01*
X92150000Y-112258300D02*
X91862100Y-112258300D01*
X92150000Y-113410000D02*
X92150000Y-112258300D01*
X106700000Y-82487500D02*
X106700000Y-79399700D01*
%TO.N,/MCU C control*%
X129350000Y-127375000D02*
X129350000Y-126573300D01*
X120325000Y-117548300D02*
X120325000Y-115425000D01*
X129350000Y-126573300D02*
X120325000Y-117548300D01*
X120409700Y-95179900D02*
X120194100Y-94964300D01*
X120409700Y-97928300D02*
X120409700Y-95179900D01*
X120409800Y-97928300D02*
X120409700Y-97928300D01*
X120759900Y-98278400D02*
X120409800Y-97928300D01*
X120759900Y-114990100D02*
X120759900Y-98278400D01*
X120325000Y-115425000D02*
X120759900Y-114990100D01*
X135625000Y-116838300D02*
X135625000Y-115325000D01*
X135728900Y-116942200D02*
X135625000Y-116838300D01*
X135728900Y-120449500D02*
X135728900Y-116942200D01*
X135392200Y-120786200D02*
X135728900Y-120449500D01*
%TO.N,/Motor2_B_OUT*%
X106050000Y-78483700D02*
X106252100Y-78281600D01*
X106050000Y-82487500D02*
X106050000Y-78483700D01*
%TO.N,/CTRL_EXT_LOAD1*%
X118925000Y-96100000D02*
X118925000Y-97001400D01*
%TO.N,/I2C1_SCL*%
X94690000Y-93090000D02*
X94690000Y-91938300D01*
X96325000Y-61485000D02*
X96325000Y-64275000D01*
X96735000Y-61075000D02*
X96325000Y-61485000D01*
X96158500Y-64441500D02*
X96325000Y-64275000D01*
X96158500Y-90753800D02*
X96158500Y-64441500D01*
X94974000Y-91938300D02*
X96158500Y-90753800D01*
X94690000Y-91938300D02*
X94974000Y-91938300D01*
%TO.N,/MOTOR4_CTRL2*%
X109149500Y-99852800D02*
X109149500Y-90961300D01*
X107975000Y-101027300D02*
X109149500Y-99852800D01*
X107975000Y-102887500D02*
X107975000Y-101027300D01*
%TO.N,/CTRL_EXT_LOAD2*%
X106295000Y-71950000D02*
X106295000Y-73837700D01*
%TO.N,/MOTOR2_CTRL2*%
X102755700Y-82511000D02*
X102981400Y-82285300D01*
X102755700Y-87939000D02*
X102755700Y-82511000D01*
X103266500Y-88449800D02*
X102755700Y-87939000D01*
X103266500Y-88754800D02*
X103266500Y-88449800D01*
X103816100Y-89304400D02*
X103266500Y-88754800D01*
X104364300Y-89304400D02*
X103816100Y-89304400D01*
X104750000Y-88918700D02*
X104364300Y-89304400D01*
X104750000Y-88212500D02*
X104750000Y-88918700D01*
%TO.N,/Motor2_A_OUT*%
X105638000Y-79981600D02*
X105638000Y-76050600D01*
X104750000Y-80869600D02*
X105638000Y-79981600D01*
X104750000Y-82487500D02*
X104750000Y-80869600D01*
%TO.N,/MOTOR3_A_OUT*%
X104725000Y-109976700D02*
X102151700Y-112550000D01*
X104725000Y-108612500D02*
X104725000Y-109976700D01*
X101350000Y-112550000D02*
X102151700Y-112550000D01*
X101350000Y-112550000D02*
X101350000Y-111748300D01*
X101350000Y-111748300D02*
X101350000Y-109713700D01*
%TO.N,/MOTOR3_CTRL1*%
X101161000Y-100197700D02*
X101161000Y-98175400D01*
X103850800Y-102887500D02*
X101161000Y-100197700D01*
X104075000Y-102887500D02*
X103850800Y-102887500D01*
%TO.N,/MOTOR4_CTRL1*%
X109551200Y-101961300D02*
X108625000Y-102887500D01*
X109551200Y-93001900D02*
X109551200Y-101961300D01*
X109952900Y-92600200D02*
X109551200Y-93001900D01*
X109952900Y-90616000D02*
X109952900Y-92600200D01*
X109735200Y-90398300D02*
X109952900Y-90616000D01*
%TO.N,Net-(IC3-AGND)*%
X121275000Y-80125000D02*
X120673300Y-80125000D01*
X117275000Y-83523300D02*
X117275000Y-84177500D01*
X120673300Y-80125000D02*
X117275000Y-83523300D01*
%TO.N,Net-(IC2-FB)*%
X127530800Y-68087500D02*
X129350000Y-68087500D01*
X124881600Y-65438300D02*
X127530800Y-68087500D01*
X124881600Y-64483400D02*
X124881600Y-65438300D01*
X125512500Y-63852500D02*
X124881600Y-64483400D01*
X129350000Y-73431500D02*
X129350000Y-68087500D01*
X129746200Y-73827700D02*
X129350000Y-73431500D01*
X131050400Y-73827700D02*
X129746200Y-73827700D01*
X131690200Y-73187900D02*
X131050400Y-73827700D01*
X131690200Y-65715000D02*
X131690200Y-73187900D01*
X132963900Y-64441300D02*
X131690200Y-65715000D01*
X134169100Y-64441300D02*
X132963900Y-64441300D01*
X134574800Y-64847000D02*
X134169100Y-64441300D01*
X134574800Y-65660400D02*
X134574800Y-64847000D01*
X134425000Y-65810200D02*
X134574800Y-65660400D01*
X134425000Y-66675000D02*
X134425000Y-65810200D01*
%TO.N,Net-(IC2-ILIM)*%
X130363800Y-59883700D02*
X130363800Y-65143700D01*
X131150000Y-59097500D02*
X130363800Y-59883700D01*
X133425000Y-66675000D02*
X133425000Y-65878300D01*
X133118400Y-65571700D02*
X133118400Y-65143700D01*
X133425000Y-65878300D02*
X133118400Y-65571700D01*
%TO.N,Net-(IC1-CC2)*%
X108875000Y-124550000D02*
X108039600Y-124550000D01*
X108039600Y-125020800D02*
X108039600Y-124550000D01*
X106575100Y-126485300D02*
X108039600Y-125020800D01*
X106575100Y-132153100D02*
X106575100Y-126485300D01*
X106164500Y-132563700D02*
X106575100Y-132153100D01*
X103280000Y-132563700D02*
X106164500Y-132563700D01*
X100241300Y-129525000D02*
X103280000Y-132563700D01*
X98025000Y-129525000D02*
X100241300Y-129525000D01*
%TO.N,Net-(IC1-CC1)*%
X108875000Y-123550000D02*
X107873300Y-123550000D01*
X107873300Y-124011500D02*
X107873300Y-123550000D01*
X107414800Y-124470000D02*
X107873300Y-124011500D01*
X107414800Y-124716500D02*
X107414800Y-124470000D01*
X96978700Y-126525000D02*
X96952700Y-126499000D01*
X98025000Y-126525000D02*
X96978700Y-126525000D01*
%TO.N,Net-(IC1-DM)*%
X103375000Y-124550000D02*
X102373300Y-124550000D01*
X98896700Y-127526500D02*
X98895200Y-127525000D01*
X98896700Y-128525000D02*
X98896700Y-127526500D01*
X99398300Y-127525000D02*
X98895200Y-127525000D01*
X102373300Y-124550000D02*
X99398300Y-127525000D01*
X98895200Y-127525000D02*
X98025000Y-127525000D01*
X98025000Y-128525000D02*
X98896700Y-128525000D01*
%TO.N,Net-(IC1-DP)*%
X103375000Y-123550000D02*
X102373300Y-123550000D01*
X98898300Y-127025000D02*
X98025000Y-127025000D01*
X102373300Y-123550000D02*
X98898300Y-127025000D01*
X97339200Y-127025000D02*
X98025000Y-127025000D01*
X97153300Y-127210900D02*
X97339200Y-127025000D01*
X97153300Y-128025000D02*
X97153300Y-127210900D01*
X98025000Y-128025000D02*
X97153300Y-128025000D01*
D64*
%TO.N,VDD*%
X120075000Y-126462500D02*
X120075000Y-125275000D01*
X116800000Y-129737500D02*
X120075000Y-126462500D01*
D63*
%TO.N,Net-(IC2-VBN)*%
X136925000Y-70075000D02*
X136925000Y-70871700D01*
X136925000Y-70871700D02*
X137498700Y-70871700D01*
X127294500Y-64305500D02*
X127294500Y-65745400D01*
X129225000Y-62375000D02*
X127294500Y-64305500D01*
%TO.N,Net-(IC2-SS)*%
X141428700Y-70058800D02*
X142212500Y-69275000D01*
X139105500Y-70058800D02*
X141428700Y-70058800D01*
X138171700Y-69125000D02*
X139105500Y-70058800D01*
X137375000Y-69125000D02*
X138171700Y-69125000D01*
%TO.N,Net-(C18-Pad2)*%
X145462500Y-69931400D02*
X145462500Y-68050000D01*
X139556400Y-75837500D02*
X145462500Y-69931400D01*
X139300000Y-75837500D02*
X139556400Y-75837500D01*
%TO.N,Net-(U1-VCP)*%
X105400000Y-88951300D02*
X105400000Y-88212500D01*
X104645200Y-89706100D02*
X105400000Y-88951300D01*
X103649800Y-89706100D02*
X104645200Y-89706100D01*
X102354000Y-88410300D02*
X103649800Y-89706100D01*
X102354000Y-80983500D02*
X102354000Y-88410300D01*
X104737500Y-78600000D02*
X102354000Y-80983500D01*
%TO.N,/EXT_LOAD2_OUT*%
X104705000Y-71450000D02*
X102950000Y-69695000D01*
X102950000Y-69695000D02*
X102950000Y-68700000D01*
X101632500Y-71012500D02*
X102950000Y-69695000D01*
X99900000Y-71012500D02*
X101632500Y-71012500D01*
X97418000Y-73494500D02*
X97418000Y-84083700D01*
X99900000Y-71012500D02*
X97418000Y-73494500D01*
%TO.N,/EXT_LOAD1_OUT*%
X116278700Y-92941200D02*
X116162500Y-92825000D01*
X116278700Y-95600000D02*
X116278700Y-92941200D01*
X116278700Y-95600000D02*
X116278700Y-95827100D01*
X116278700Y-95600000D02*
X117335000Y-95600000D01*
X121950000Y-93643400D02*
X121950000Y-95850000D01*
X119900300Y-91593700D02*
X121950000Y-93643400D01*
X118638200Y-91593700D02*
X119900300Y-91593700D01*
X117335000Y-92896900D02*
X118638200Y-91593700D01*
X117335000Y-95600000D02*
X117335000Y-92896900D01*
%TO.N,/5V Out*%
X106332500Y-71412500D02*
X106295000Y-71450000D01*
X110700000Y-71412500D02*
X106332500Y-71412500D01*
X134925000Y-66675000D02*
X134925000Y-65878300D01*
X135425000Y-66675000D02*
X135425000Y-66276600D01*
X135925000Y-66675000D02*
X135925000Y-65878300D01*
X135425000Y-66077400D02*
X135425000Y-65878300D01*
X135425000Y-66276600D02*
X135425000Y-66077400D01*
X135624100Y-65878300D02*
X135925000Y-65878300D01*
X135425000Y-66077400D02*
X135624100Y-65878300D01*
X119787500Y-99150000D02*
X119787500Y-97196700D01*
X119787500Y-96031200D02*
X119787500Y-97196700D01*
X119356300Y-95600000D02*
X119787500Y-96031200D01*
X118925000Y-95600000D02*
X119356300Y-95600000D01*
X129238200Y-66374300D02*
X128371700Y-66374300D01*
X129350000Y-66262500D02*
X129238200Y-66374300D01*
X113255400Y-71412500D02*
X110700000Y-71412500D01*
X113255400Y-71412500D02*
X113255400Y-66374300D01*
X114091300Y-72248400D02*
X113255400Y-71412500D01*
X114091300Y-95198700D02*
X114091300Y-72248400D01*
X130387500Y-66262500D02*
X129350000Y-66262500D01*
X130387500Y-66262500D02*
X130387500Y-72625000D01*
X133787500Y-58025000D02*
X133787500Y-62025000D01*
X133737500Y-57975000D02*
X133787500Y-58025000D01*
X142812500Y-61950000D02*
X142812500Y-59987000D01*
X142775000Y-59949500D02*
X142775000Y-58425000D01*
X142812500Y-59987000D02*
X142775000Y-59949500D01*
X133787500Y-62862500D02*
X130387500Y-66262500D01*
X133787500Y-62025000D02*
X133787500Y-62862500D01*
X135008100Y-63245600D02*
X133787500Y-62025000D01*
X135008100Y-65878300D02*
X135008100Y-63245600D01*
X134925000Y-65878300D02*
X135008100Y-65878300D01*
X135008100Y-65878300D02*
X135425000Y-65878300D01*
D64*
%TO.N,/HV*%
X113900000Y-122300000D02*
X113900000Y-107075500D01*
D63*
X128575000Y-107896200D02*
X128575000Y-106725000D01*
D64*
X132088500Y-106725000D02*
X132912500Y-105901000D01*
X128575000Y-106725000D02*
X132088500Y-106725000D01*
X136625000Y-112425000D02*
X136625000Y-111698300D01*
D63*
X136625000Y-111448300D02*
X136625000Y-111698300D01*
D64*
X135818400Y-110641700D02*
X136625000Y-111448300D01*
D63*
X135611000Y-110641700D02*
X135818400Y-110641700D01*
%TO.N,/Battery*%
X106675000Y-99212500D02*
X105412500Y-97950000D01*
X106675000Y-102887500D02*
X106675000Y-99212500D01*
X98933300Y-86279200D02*
X98933300Y-90550000D01*
X100600000Y-84612500D02*
X98933300Y-86279200D01*
X105375000Y-97987500D02*
X105412500Y-97950000D01*
X105375000Y-102887500D02*
X105375000Y-97987500D01*
X133425000Y-73925000D02*
X133425000Y-70075000D01*
X133900000Y-74400000D02*
X133425000Y-73925000D01*
X130225000Y-98399100D02*
X130225000Y-100800000D01*
X133490700Y-95133400D02*
X130225000Y-98399100D01*
X133490700Y-95133400D02*
X133490700Y-90433400D01*
X131151000Y-78287500D02*
X128375000Y-78287500D01*
X131151000Y-88093700D02*
X131151000Y-78287500D01*
X133490700Y-90433400D02*
X131151000Y-88093700D01*
X131151000Y-77149000D02*
X133900000Y-74400000D01*
X131151000Y-78287500D02*
X131151000Y-77149000D01*
X103970000Y-96507500D02*
X103970000Y-93300000D01*
X105412500Y-97950000D02*
X103970000Y-96507500D01*
X106050000Y-91220000D02*
X103970000Y-93300000D01*
X106050000Y-88212500D02*
X106050000Y-91220000D01*
X100295000Y-58075000D02*
X102600000Y-58075000D01*
X99245000Y-59125000D02*
X100295000Y-58075000D01*
X106825000Y-58075000D02*
X107125000Y-57775000D01*
X102600000Y-58075000D02*
X106825000Y-58075000D01*
X115650000Y-57950000D02*
X119625000Y-57950000D01*
X107150000Y-57750000D02*
X107125000Y-57775000D01*
X111575000Y-57750000D02*
X107150000Y-57750000D01*
X115450000Y-57750000D02*
X115650000Y-57950000D01*
X111575000Y-57750000D02*
X115450000Y-57750000D01*
X120863800Y-86656200D02*
X120863800Y-91568800D01*
X122345000Y-85175000D02*
X120863800Y-86656200D01*
X100600000Y-80662500D02*
X100600000Y-84612500D01*
X102662500Y-78600000D02*
X100600000Y-80662500D01*
X98933300Y-95632000D02*
X98933300Y-90550000D01*
X97182700Y-97382600D02*
X98933300Y-95632000D01*
X97182700Y-106007700D02*
X97182700Y-97382600D01*
X98200000Y-107025000D02*
X97182700Y-106007700D01*
X122549200Y-79125000D02*
X122173300Y-79125000D01*
X122549200Y-79125000D02*
X122925000Y-79125000D01*
X107350000Y-88212500D02*
X107350000Y-90550000D01*
X103970000Y-93300000D02*
X103970000Y-90550000D01*
X141775000Y-123288600D02*
X142745500Y-122318100D01*
X141775000Y-133600000D02*
X141775000Y-123288600D01*
X142745500Y-122318000D02*
X145650000Y-119413500D01*
X142745500Y-122318100D02*
X142745500Y-122318000D01*
X134425000Y-113625000D02*
X133698300Y-113625000D01*
X133698300Y-119667700D02*
X133698300Y-113625000D01*
X134542400Y-120511800D02*
X133698300Y-119667700D01*
X122173300Y-79125000D02*
X121275000Y-79125000D01*
X128375000Y-78287500D02*
X128375000Y-77115900D01*
X120643400Y-79125000D02*
X120463200Y-79305200D01*
X121275000Y-79125000D02*
X120643400Y-79125000D01*
X108855000Y-118376200D02*
X108855000Y-112675000D01*
X112700000Y-108830000D02*
X112700000Y-107287500D01*
X108855000Y-112675000D02*
X112700000Y-108830000D01*
X111825000Y-91567500D02*
X111826300Y-91568800D01*
X111825000Y-86825000D02*
X111825000Y-91567500D01*
X111826300Y-106413800D02*
X112700000Y-107287500D01*
X111826300Y-91568800D02*
X111826300Y-106413800D01*
X122550000Y-57950000D02*
X122650000Y-58050000D01*
X119625000Y-57950000D02*
X122550000Y-57950000D01*
X124027700Y-76514500D02*
X125832300Y-78319100D01*
X124027700Y-59427700D02*
X124027700Y-76514500D01*
X122650000Y-58050000D02*
X124027700Y-59427700D01*
%TO.N,GND*%
X106025000Y-105425000D02*
X106025000Y-102887500D01*
X106350000Y-105750000D02*
X106025000Y-105425000D01*
X107325000Y-106725000D02*
X107325000Y-108612500D01*
X106350000Y-105750000D02*
X107325000Y-106725000D01*
X91881500Y-99321700D02*
X92150000Y-99321700D01*
X90991900Y-100211300D02*
X91881500Y-99321700D01*
X90991900Y-101228100D02*
X90991900Y-100211300D01*
X91862100Y-102098300D02*
X90991900Y-101228100D01*
X92150000Y-102098300D02*
X91862100Y-102098300D01*
X92150000Y-103250000D02*
X92150000Y-102098300D01*
X92150000Y-98170000D02*
X92150000Y-99321700D01*
X107350000Y-84375000D02*
X107350000Y-82487500D01*
X106375000Y-85350000D02*
X107350000Y-84375000D01*
X105500000Y-71869000D02*
X105500000Y-72431700D01*
X105500000Y-71869000D02*
X105500000Y-71700000D01*
X118130000Y-96581700D02*
X117335000Y-96581700D01*
X117335000Y-96100000D02*
X117335000Y-96581700D01*
X135521700Y-68375000D02*
X136425000Y-67471700D01*
X135175000Y-68375000D02*
X135521700Y-68375000D01*
X133771700Y-67901600D02*
X133298300Y-68375000D01*
X133771700Y-67625000D02*
X133771700Y-67901600D01*
X135175000Y-68375000D02*
X133298300Y-68375000D01*
X136425000Y-67073300D02*
X136425000Y-67471700D01*
X128625000Y-115425000D02*
X127150000Y-113950000D01*
X129200000Y-115425000D02*
X128625000Y-115425000D01*
X135969500Y-123194000D02*
X136787500Y-122376000D01*
X134516100Y-123194000D02*
X135969500Y-123194000D01*
X129200000Y-117877900D02*
X134516100Y-123194000D01*
X129200000Y-115425000D02*
X129200000Y-117877900D01*
X145650000Y-115188500D02*
X146863800Y-115188500D01*
X146863800Y-121324700D02*
X146863800Y-115188500D01*
X145650000Y-122538500D02*
X146863800Y-121324700D01*
X140487500Y-66550000D02*
X140412500Y-66475000D01*
X140487500Y-69275000D02*
X140487500Y-66550000D01*
X112700000Y-103112500D02*
X116662500Y-99150000D01*
X112700000Y-105562500D02*
X112700000Y-103112500D01*
X128650000Y-81687500D02*
X128375000Y-81412500D01*
X128650000Y-86825000D02*
X128650000Y-81687500D01*
X139687500Y-65750000D02*
X139687500Y-62025000D01*
X140412500Y-66475000D02*
X139687500Y-65750000D01*
X139687500Y-62025000D02*
X139687500Y-61950000D01*
X116998800Y-99150000D02*
X116662500Y-99150000D01*
X117335000Y-98813800D02*
X116998800Y-99150000D01*
X117335000Y-96581700D02*
X117335000Y-98813800D01*
X116998800Y-115198800D02*
X117225000Y-115425000D01*
X116998800Y-99150000D02*
X116998800Y-115198800D01*
X105375000Y-112320000D02*
X105375000Y-108612500D01*
X105730000Y-112675000D02*
X105375000Y-112320000D01*
X105575000Y-125001700D02*
X105575000Y-131550000D01*
X106125000Y-124451700D02*
X105575000Y-125001700D01*
X141700000Y-105401000D02*
X140950000Y-104651000D01*
X145525000Y-105401000D02*
X141700000Y-105401000D01*
X118130000Y-96215800D02*
X118130000Y-96581700D01*
X118130000Y-96215800D02*
X118130000Y-95850000D01*
X118130000Y-93982500D02*
X119287500Y-92825000D01*
X118130000Y-95850000D02*
X118130000Y-93982500D01*
X101850000Y-60425000D02*
X102600000Y-61175000D01*
X99245000Y-60425000D02*
X101850000Y-60425000D01*
X103925000Y-62500000D02*
X105500000Y-62500000D01*
X102600000Y-61175000D02*
X103925000Y-62500000D01*
X105500000Y-71700000D02*
X105500000Y-62500000D01*
X115650000Y-61050000D02*
X119625000Y-61050000D01*
X127262500Y-72625000D02*
X127114100Y-72625000D01*
X106700000Y-85675000D02*
X106700000Y-88212500D01*
X106375000Y-85350000D02*
X106700000Y-85675000D01*
X140323300Y-120224300D02*
X139300000Y-119201000D01*
X141923500Y-120224300D02*
X140323300Y-120224300D01*
X145650000Y-116497800D02*
X141923500Y-120224300D01*
X145650000Y-115188500D02*
X145650000Y-116497800D01*
X105375000Y-106725000D02*
X105923500Y-106176500D01*
X105375000Y-108612500D02*
X105375000Y-106725000D01*
X105923500Y-106176500D02*
X106350000Y-105750000D01*
X106700000Y-92905000D02*
X107095000Y-93300000D01*
X106700000Y-88212500D02*
X106700000Y-92905000D01*
X105500000Y-62500000D02*
X107125000Y-60875000D01*
X106125000Y-122550000D02*
X106125000Y-123500800D01*
X106125000Y-123500800D02*
X106125000Y-124451700D01*
X105730000Y-123105800D02*
X105730000Y-112675000D01*
X106125000Y-123500800D02*
X105730000Y-123105800D01*
X105400000Y-84375000D02*
X106375000Y-85350000D01*
X105400000Y-82487500D02*
X105400000Y-84375000D01*
X147265500Y-107141500D02*
X145525000Y-105401000D01*
X147265500Y-114786800D02*
X147265500Y-107141500D01*
X146863800Y-115188500D02*
X147265500Y-114786800D01*
X133075000Y-67625000D02*
X132975000Y-67625000D01*
X133075000Y-67625000D02*
X133771700Y-67625000D01*
X119725000Y-61150000D02*
X119625000Y-61050000D01*
X122650000Y-61150000D02*
X119725000Y-61150000D01*
X139775000Y-125363500D02*
X139775000Y-133600000D01*
X136787500Y-122376000D02*
X139775000Y-125363500D01*
X122376700Y-80125000D02*
X122725000Y-80125000D01*
X121876700Y-79625000D02*
X122376700Y-80125000D01*
X111575000Y-60862500D02*
X111575000Y-60850000D01*
X111562500Y-60875000D02*
X111575000Y-60862500D01*
X107125000Y-60875000D02*
X111562500Y-60875000D01*
X115462500Y-60862500D02*
X115650000Y-61050000D01*
X111575000Y-60862500D02*
X115462500Y-60862500D01*
X100559300Y-86378200D02*
X100600000Y-86337500D01*
X100559300Y-98424500D02*
X100559300Y-86378200D01*
X100052700Y-98424500D02*
X100559300Y-98424500D01*
X136787500Y-121713500D02*
X136787500Y-122376000D01*
X139300000Y-119201000D02*
X136787500Y-121713500D01*
X132286400Y-56766100D02*
X131150000Y-57902500D01*
X135653600Y-56766100D02*
X132286400Y-56766100D01*
X136862500Y-57975000D02*
X135653600Y-56766100D01*
X141294400Y-68468100D02*
X140487500Y-69275000D01*
X142743600Y-68468100D02*
X141294400Y-68468100D01*
X143099600Y-68824100D02*
X142743600Y-68468100D01*
X143099600Y-69702300D02*
X143099600Y-68824100D01*
X140089400Y-72712500D02*
X143099600Y-69702300D01*
X139300000Y-72712500D02*
X140089400Y-72712500D01*
X102638000Y-74137500D02*
X104705000Y-72070500D01*
X99900000Y-74137500D02*
X102638000Y-74137500D01*
X105066200Y-72431700D02*
X104705000Y-72070500D01*
X105500000Y-72431700D02*
X105066200Y-72431700D01*
X104705000Y-72070500D02*
X104705000Y-71950000D01*
X136800500Y-115500500D02*
X136625000Y-115325000D01*
X138481600Y-115500500D02*
X136800500Y-115500500D01*
X138886200Y-115095900D02*
X138481600Y-115500500D01*
X138886200Y-105901000D02*
X138886200Y-115095900D01*
X136037500Y-105901000D02*
X138886200Y-105901000D01*
X139700000Y-105901000D02*
X140950000Y-104651000D01*
X138886200Y-105901000D02*
X139700000Y-105901000D01*
X136425000Y-67073300D02*
X136425000Y-66675000D01*
X136425000Y-62512500D02*
X136912500Y-62025000D01*
X136425000Y-66675000D02*
X136425000Y-62512500D01*
X121275000Y-79625000D02*
X121775900Y-79625000D01*
X121875200Y-79625000D02*
X121876700Y-79625000D01*
X121775900Y-79625000D02*
X121875200Y-79625000D01*
X139687500Y-62025000D02*
X136912500Y-62025000D01*
X136912500Y-58025000D02*
X136862500Y-57975000D01*
X136912500Y-62025000D02*
X136912500Y-58025000D01*
X100600000Y-100853100D02*
X105923500Y-106176500D01*
X100600000Y-98466800D02*
X100600000Y-100853100D01*
X100559300Y-98426100D02*
X100600000Y-98466800D01*
X100559300Y-98424500D02*
X100559300Y-98426100D01*
X107487400Y-93692400D02*
X107095000Y-93300000D01*
X107487400Y-96399700D02*
X107487400Y-93692400D01*
X123586100Y-86760900D02*
X124852900Y-88027700D01*
X123586100Y-83711300D02*
X123586100Y-86760900D01*
X121876700Y-82001900D02*
X123586100Y-83711300D01*
X121876700Y-79875000D02*
X121876700Y-82001900D01*
X121875200Y-79873500D02*
X121876700Y-79875000D01*
X121875200Y-79625000D02*
X121875200Y-79873500D01*
X127447300Y-88027700D02*
X128650000Y-86825000D01*
X124852900Y-88027700D02*
X127447300Y-88027700D01*
X120811400Y-94348900D02*
X119287500Y-92825000D01*
X120811400Y-96164600D02*
X120811400Y-94348900D01*
X121319700Y-96672900D02*
X120811400Y-96164600D01*
X123782300Y-96672900D02*
X121319700Y-96672900D01*
X123782300Y-110582300D02*
X123782300Y-96672900D01*
X127150000Y-113950000D02*
X123782300Y-110582300D01*
X123782300Y-89098300D02*
X124852900Y-88027700D01*
X123782300Y-96672900D02*
X123782300Y-89098300D01*
X108848800Y-76388700D02*
X110700000Y-74537500D01*
X107310300Y-76388700D02*
X108848800Y-76388700D01*
X107310300Y-82447800D02*
X107310300Y-76388700D01*
X107350000Y-82487500D02*
X107310300Y-82447800D01*
X105500000Y-74578400D02*
X105500000Y-72431700D01*
X107310300Y-76388700D02*
X105500000Y-74578400D01*
X128090000Y-60962500D02*
X131150000Y-57902500D01*
X128090000Y-62375000D02*
X128090000Y-60962500D01*
X99245000Y-60425000D02*
X99245000Y-59775000D01*
X99245000Y-59775000D02*
X96735000Y-59775000D01*
X125583200Y-78920800D02*
X127114100Y-78920800D01*
X122650000Y-75987600D02*
X125583200Y-78920800D01*
X122650000Y-61150000D02*
X122650000Y-75987600D01*
X127114100Y-72625000D02*
X127114100Y-78920800D01*
X127114100Y-80151600D02*
X128375000Y-81412500D01*
X127114100Y-78920800D02*
X127114100Y-80151600D01*
X126075000Y-71585900D02*
X126075000Y-70462500D01*
X127114100Y-72625000D02*
X126075000Y-71585900D01*
X127069100Y-63395900D02*
X126134800Y-63395900D01*
X128090000Y-62375000D02*
X127069100Y-63395900D01*
X125921500Y-63182600D02*
X126134800Y-63395900D01*
X125112400Y-63182600D02*
X125921500Y-63182600D01*
X124479400Y-63815600D02*
X125112400Y-63182600D01*
X124479400Y-68866900D02*
X124479400Y-63815600D01*
X126075000Y-70462500D02*
X124479400Y-68866900D01*
X126134800Y-64425200D02*
X125512500Y-65047500D01*
X126134800Y-63395900D02*
X126134800Y-64425200D01*
%TO.N,/3V3 Out*%
X94690000Y-95630000D02*
X94690000Y-94478300D01*
X92800000Y-59125000D02*
X91750000Y-58075000D01*
X96735000Y-59125000D02*
X92800000Y-59125000D01*
X117025000Y-75665600D02*
X117025000Y-74675000D01*
X96785300Y-66914700D02*
X96785300Y-75000100D01*
X99425000Y-64275000D02*
X96785300Y-66914700D01*
X117075000Y-74725000D02*
X121300000Y-74725000D01*
X117025000Y-74675000D02*
X117075000Y-74725000D01*
X121300000Y-74725000D02*
X121300000Y-75526700D01*
X125525000Y-82894100D02*
X123755900Y-81125000D01*
X125525000Y-86825000D02*
X125525000Y-82894100D01*
X122925000Y-81125000D02*
X123755900Y-81125000D01*
X121600600Y-75526700D02*
X121300000Y-75526700D01*
X124550400Y-78476500D02*
X121600600Y-75526700D01*
X124550400Y-80330500D02*
X124550400Y-78476500D01*
X123755900Y-81125000D02*
X124550400Y-80330500D01*
X94978000Y-94478300D02*
X94690000Y-94478300D01*
X96783800Y-92672500D02*
X94978000Y-94478300D01*
X96783800Y-75001600D02*
X96783800Y-92672500D01*
X96785300Y-75000100D02*
X96783800Y-75001600D01*
X99245000Y-64095000D02*
X99425000Y-64275000D01*
X99245000Y-61075000D02*
X99245000Y-64095000D01*
X89715800Y-60109200D02*
X91750000Y-58075000D01*
X89715800Y-72295600D02*
X89715800Y-60109200D01*
%TD*%
M02*
