%TF.GenerationSoftware,KiCad,Pcbnew,9.0.0*%
%TF.CreationDate,2025-04-05T16:57:48+02:00*%
%TF.ProjectId,PCB_v2,5043425f-7632-42e6-9b69-6361645f7063,rev?*%
%TF.SameCoordinates,Original*%
%TF.FileFunction,Copper,L2,Bot*%
%TF.FilePolarity,Positive*%
%FSLAX46Y46*%
G04 Gerber Fmt 4.6, Leading zero omitted, Abs format (unit mm)*
G04 Created by KiCad (PCBNEW 9.0.0) date 2025-04-05 16:57:48*
%MOMM*%
%LPD*%
G01*
G04 APERTURE LIST*
%TA.AperFunction,ComponentPad*%
%ADD10R,1.350000X1.350000*%
%TD*%
%TA.AperFunction,ComponentPad*%
%ADD11C,1.350000*%
%TD*%
%TA.AperFunction,ComponentPad*%
%ADD12C,2.057400*%
%TD*%
%TA.AperFunction,ComponentPad*%
%ADD13O,2.050000X0.950000*%
%TD*%
%TA.AperFunction,ComponentPad*%
%ADD14O,1.750000X0.950000*%
%TD*%
%TA.AperFunction,ComponentPad*%
%ADD15R,1.700000X1.700000*%
%TD*%
%TA.AperFunction,ComponentPad*%
%ADD16O,1.700000X1.700000*%
%TD*%
%TA.AperFunction,ComponentPad*%
%ADD17R,1.000000X1.000000*%
%TD*%
%TA.AperFunction,ViaPad*%
%ADD18C,0.600000*%
%TD*%
%TA.AperFunction,Conductor*%
%ADD19C,0.200000*%
%TD*%
G04 APERTURE END LIST*
D10*
%TO.P,J3,1,Pin_1*%
%TO.N,/Battery*%
X141775000Y-133600000D03*
D11*
%TO.P,J3,2,Pin_2*%
%TO.N,GND*%
X139775000Y-133600000D03*
%TD*%
D12*
%TO.P,SW1,1,1*%
%TO.N,unconnected-(SW1-Pad1)*%
X133490700Y-85733400D03*
%TO.P,SW1,2,2*%
%TO.N,/Battery*%
X133490700Y-90433401D03*
%TO.P,SW1,3,3*%
X133490700Y-95133401D03*
%TD*%
D13*
%TO.P,J2,SH1*%
%TO.N,N/C*%
X97475000Y-123450000D03*
%TO.P,J2,SH2*%
X97475000Y-132100000D03*
D14*
%TO.P,J2,SH3*%
X93275000Y-123450000D03*
%TO.P,J2,SH4*%
X93275000Y-132100000D03*
%TD*%
D15*
%TO.P,J1,1,Pin_1*%
%TO.N,/Motor2_B_OUT*%
X92150000Y-75310000D03*
D16*
%TO.P,J1,2,Pin_2*%
%TO.N,/Motor2_A_OUT*%
X94690000Y-75310000D03*
%TO.P,J1,3,Pin_3*%
%TO.N,/Motor4_A_OUT*%
X92150000Y-77850000D03*
%TO.P,J1,4,Pin_4*%
%TO.N,/MOTOR2_CTRL1*%
X94690000Y-77850000D03*
%TO.P,J1,5,Pin_5*%
%TO.N,/Motor4_B_OUT*%
X92150000Y-80390000D03*
%TO.P,J1,6,Pin_6*%
%TO.N,/MOTOR2_CTRL2*%
X94690000Y-80390000D03*
%TO.P,J1,7,Pin_7*%
%TO.N,/CTRL_EXT_LOAD2*%
X92150000Y-82930000D03*
%TO.P,J1,8,Pin_8*%
%TO.N,/MOTOR4_CTRL1*%
X94690000Y-82930000D03*
%TO.P,J1,9,Pin_9*%
%TO.N,/USART2_RX*%
X92150000Y-85470000D03*
%TO.P,J1,10,Pin_10*%
%TO.N,/MOTOR4_CTRL2*%
X94690000Y-85470000D03*
%TO.P,J1,11,Pin_11*%
%TO.N,/EXT_LOAD2_OUT*%
X92150000Y-88010000D03*
%TO.P,J1,12,Pin_12*%
%TO.N,/USART2_TX*%
X94690000Y-88010000D03*
%TO.P,J1,13,Pin_13*%
%TO.N,/MCU C control*%
X92150000Y-90550000D03*
%TO.P,J1,14,Pin_14*%
%TO.N,/Battery*%
X94690000Y-90550000D03*
%TO.P,J1,15,Pin_15*%
%TO.N,unconnected-(J1-Pin_15-Pad15)*%
X92150000Y-93090000D03*
%TO.P,J1,16,Pin_16*%
%TO.N,/I2C1_SCL*%
X94690000Y-93090000D03*
%TO.P,J1,17,Pin_17*%
%TO.N,/I2C1_SDA*%
X92150000Y-95630000D03*
%TO.P,J1,18,Pin_18*%
%TO.N,/3V3 Out*%
X94690000Y-95630000D03*
%TO.P,J1,19,Pin_19*%
%TO.N,GND*%
X92150000Y-98170000D03*
%TO.P,J1,20,Pin_20*%
%TO.N,/5V Out*%
X94690000Y-98170000D03*
%TO.P,J1,21,Pin_21*%
%TO.N,/EXT_LOAD1_OUT*%
X92150000Y-100710000D03*
%TO.P,J1,22,Pin_22*%
%TO.N,/HV*%
X94690000Y-100710000D03*
%TO.P,J1,23,Pin_23*%
%TO.N,GND*%
X92150000Y-103250000D03*
%TO.P,J1,24,Pin_24*%
%TO.N,/MOTOR3_CTRL1*%
X94690000Y-103250000D03*
%TO.P,J1,25,Pin_25*%
%TO.N,/CTRL_EXT_LOAD1*%
X92150000Y-105790000D03*
%TO.P,J1,26,Pin_26*%
%TO.N,/MOTOR3_CTRL2*%
X94690000Y-105790000D03*
%TO.P,J1,27,Pin_27*%
%TO.N,/MOTOR3_A_OUT*%
X92150000Y-108330000D03*
%TO.P,J1,28,Pin_28*%
%TO.N,/MOTOR1_CTRL1*%
X94690000Y-108330000D03*
%TO.P,J1,29,Pin_29*%
%TO.N,/MOTOR3_B_OUT*%
X92150000Y-110870000D03*
%TO.P,J1,30,Pin_30*%
%TO.N,/MOTOR1_CTRL2*%
X94690000Y-110870000D03*
%TO.P,J1,31,Pin_31*%
%TO.N,/MOTOR1_B_OUT*%
X92150000Y-113410000D03*
%TO.P,J1,32,Pin_32*%
%TO.N,/MOTOR1_A_OUT*%
X94690000Y-113410000D03*
%TD*%
D17*
%TO.P,MCUTP1,1,1*%
%TO.N,/MCU C control*%
X129350000Y-127375000D03*
%TD*%
D18*
%TO.N,Net-(U6-~{CHG})*%
X138265700Y-114864900D03*
X126547900Y-120125900D03*
%TO.N,/Motor4_B_OUT*%
X111207700Y-88098400D03*
%TO.N,/Motor4_A_OUT*%
X93301700Y-91820000D03*
X110153800Y-93250100D03*
%TO.N,/MOTOR1_CTRL1*%
X110248100Y-107696300D03*
%TO.N,Net-(IC2-COMP)*%
X133925000Y-65086000D03*
X142137500Y-65086000D03*
%TO.N,Net-(C14-Pad2)*%
X126548300Y-117350000D03*
X141188500Y-113360800D03*
X138275700Y-113360800D03*
%TO.N,Net-(U6-EN2)*%
X135127200Y-117191400D03*
X139769700Y-115799100D03*
%TO.N,Net-(U6-~{CE})*%
X134425000Y-119503000D03*
X146663500Y-113619900D03*
%TO.N,Net-(IC1-VDD)*%
X114091300Y-127108200D03*
X104581300Y-127108200D03*
%TO.N,/MOTOR2_CTRL1*%
X95458600Y-86621700D03*
X103365500Y-86553300D03*
%TO.N,/MOTOR1_A_OUT*%
X99120100Y-80215100D03*
X108147800Y-80018200D03*
%TO.N,/MOTOR1_CTRL2*%
X96889600Y-106831700D03*
X108414800Y-99028600D03*
%TO.N,/MOTOR3_B_OUT*%
X106025000Y-110681600D03*
%TO.N,/MOTOR3_CTRL2*%
X103564700Y-101750300D03*
%TO.N,/MOTOR1_B_OUT*%
X98475700Y-81092100D03*
X106700000Y-79399700D03*
%TO.N,/MCU C control*%
X135392200Y-120786200D03*
X120194100Y-94964300D03*
%TO.N,/Motor2_B_OUT*%
X106252100Y-78281600D03*
%TO.N,/CTRL_EXT_LOAD1*%
X118925000Y-97001400D03*
%TO.N,/MOTOR4_CTRL2*%
X109149500Y-90961300D03*
%TO.N,/CTRL_EXT_LOAD2*%
X106295000Y-73837700D03*
%TO.N,/MOTOR2_CTRL2*%
X102981400Y-82285300D03*
%TO.N,/Motor2_A_OUT*%
X105638000Y-76050600D03*
%TO.N,/MOTOR3_A_OUT*%
X101350000Y-109713700D03*
%TO.N,/MOTOR3_CTRL1*%
X101161000Y-98175400D03*
%TO.N,/MOTOR4_CTRL1*%
X109735200Y-90398300D03*
%TO.N,Net-(IC2-ILIM)*%
X130363800Y-65143700D03*
X133118400Y-65143700D03*
%TO.N,Net-(IC1-CC1)*%
X96952700Y-126499000D03*
X107414800Y-124716500D03*
%TO.N,Net-(IC2-VBN)*%
X137498700Y-70871700D03*
X127294500Y-65745400D03*
%TO.N,/EXT_LOAD2_OUT*%
X97418000Y-84083700D03*
%TO.N,/EXT_LOAD1_OUT*%
X116278700Y-95827100D03*
%TO.N,/5V Out*%
X119787500Y-97196700D03*
X114091300Y-95198700D03*
X113255400Y-66374300D03*
X128371700Y-66374300D03*
X142812500Y-59987000D03*
%TO.N,/HV*%
X113900000Y-107075500D03*
X128575000Y-107896200D03*
X135611000Y-110641700D03*
%TO.N,/Battery*%
X98933300Y-90550000D03*
X103970000Y-90550000D03*
X107350000Y-90550000D03*
X120863800Y-91568800D03*
X111826300Y-91568800D03*
X134542400Y-120511800D03*
X142745500Y-122318100D03*
X120463200Y-79305200D03*
X128375000Y-77115900D03*
X108855000Y-118376200D03*
X125832300Y-78319100D03*
%TO.N,GND*%
X100052700Y-98424500D03*
X107487400Y-96399700D03*
%TO.N,/3V3 Out*%
X96785300Y-75000100D03*
X117025000Y-75665600D03*
X89715800Y-72295600D03*
%TD*%
D19*
%TO.N,Net-(U6-~{CHG})*%
X131808900Y-114864900D02*
X138265700Y-114864900D01*
X126547900Y-120125900D02*
X131808900Y-114864900D01*
%TO.N,/Motor4_B_OUT*%
X92150000Y-80390000D02*
X93301700Y-80390000D01*
X93301700Y-80658500D02*
X93301700Y-80390000D01*
X94303200Y-81660000D02*
X93301700Y-80658500D01*
X96513600Y-81660000D02*
X94303200Y-81660000D01*
X99597200Y-84743600D02*
X96513600Y-81660000D01*
X107852900Y-84743600D02*
X99597200Y-84743600D01*
X111207700Y-88098400D02*
X107852900Y-84743600D01*
%TO.N,/Motor4_A_OUT*%
X95691200Y-91820000D02*
X93301700Y-91820000D01*
X97121300Y-93250100D02*
X95691200Y-91820000D01*
X110153800Y-93250100D02*
X97121300Y-93250100D01*
%TO.N,/MOTOR1_CTRL1*%
X94690000Y-108330000D02*
X95841700Y-108330000D01*
X109614400Y-108330000D02*
X110248100Y-107696300D01*
X95841700Y-108330000D02*
X109614400Y-108330000D01*
%TO.N,Net-(IC2-COMP)*%
X142137500Y-65086000D02*
X133925000Y-65086000D01*
%TO.N,Net-(C14-Pad2)*%
X141188500Y-113360800D02*
X138275700Y-113360800D01*
X130537500Y-113360800D02*
X138275700Y-113360800D01*
X126548300Y-117350000D02*
X130537500Y-113360800D01*
%TO.N,Net-(U6-EN2)*%
X138377400Y-117191400D02*
X139769700Y-115799100D01*
X135127200Y-117191400D02*
X138377400Y-117191400D01*
%TO.N,Net-(U6-~{CE})*%
X140780400Y-119503000D02*
X134425000Y-119503000D01*
X146663500Y-113619900D02*
X140780400Y-119503000D01*
%TO.N,Net-(IC1-VDD)*%
X104581300Y-127108200D02*
X114091300Y-127108200D01*
%TO.N,/MOTOR2_CTRL1*%
X95527000Y-86553300D02*
X95458600Y-86621700D01*
X103365500Y-86553300D02*
X95527000Y-86553300D01*
%TO.N,/MOTOR1_A_OUT*%
X107950900Y-80215100D02*
X99120100Y-80215100D01*
X108147800Y-80018200D02*
X107950900Y-80215100D01*
%TO.N,/MOTOR1_CTRL2*%
X104874600Y-102568800D02*
X108414800Y-99028600D01*
X101152500Y-102568800D02*
X104874600Y-102568800D01*
X96889600Y-106831700D02*
X101152500Y-102568800D01*
%TO.N,/MOTOR3_B_OUT*%
X104646000Y-112060600D02*
X106025000Y-110681600D01*
X94204400Y-112060600D02*
X104646000Y-112060600D01*
X93301700Y-111157900D02*
X94204400Y-112060600D01*
X93301700Y-110870000D02*
X93301700Y-111157900D01*
X92150000Y-110870000D02*
X93301700Y-110870000D01*
%TO.N,/MOTOR3_CTRL2*%
X94690000Y-105790000D02*
X95841700Y-105790000D01*
X99881400Y-101750300D02*
X103564700Y-101750300D01*
X95841700Y-105790000D02*
X99881400Y-101750300D01*
%TO.N,/MOTOR1_B_OUT*%
X108402500Y-79399700D02*
X106700000Y-79399700D01*
X108749600Y-79746800D02*
X108402500Y-79399700D01*
X108749600Y-80294300D02*
X108749600Y-79746800D01*
X107951800Y-81092100D02*
X108749600Y-80294300D01*
X98475700Y-81092100D02*
X107951800Y-81092100D01*
%TO.N,/MCU C control*%
X129605100Y-126573300D02*
X135392200Y-120786200D01*
X129350000Y-126573300D02*
X129605100Y-126573300D01*
X129350000Y-127375000D02*
X129350000Y-126573300D01*
X92150000Y-90550000D02*
X92150000Y-91701700D01*
X119547200Y-94317400D02*
X120194100Y-94964300D01*
X91748200Y-94317400D02*
X119547200Y-94317400D01*
X90995600Y-93564800D02*
X91748200Y-94317400D01*
X90995600Y-92587600D02*
X90995600Y-93564800D01*
X91881500Y-91701700D02*
X90995600Y-92587600D01*
X92150000Y-91701700D02*
X91881500Y-91701700D01*
%TO.N,/Motor2_B_OUT*%
X104550500Y-76580000D02*
X106252100Y-78281600D01*
X94283800Y-76580000D02*
X104550500Y-76580000D01*
X93301700Y-75597900D02*
X94283800Y-76580000D01*
X93301700Y-75310000D02*
X93301700Y-75597900D01*
X92150000Y-75310000D02*
X93301700Y-75310000D01*
%TO.N,/CTRL_EXT_LOAD1*%
X92150000Y-105790000D02*
X93301700Y-105790000D01*
X103753900Y-97001400D02*
X118925000Y-97001400D01*
X96117000Y-104638300D02*
X103753900Y-97001400D01*
X94165400Y-104638300D02*
X96117000Y-104638300D01*
X93301700Y-105502000D02*
X94165400Y-104638300D01*
X93301700Y-105790000D02*
X93301700Y-105502000D01*
%TO.N,/MOTOR4_CTRL2*%
X94690000Y-85470000D02*
X95841700Y-85470000D01*
X104059900Y-85871700D02*
X109149500Y-90961300D01*
X96243400Y-85871700D02*
X104059900Y-85871700D01*
X95841700Y-85470000D02*
X96243400Y-85871700D01*
%TO.N,/CTRL_EXT_LOAD2*%
X92150000Y-82930000D02*
X92150000Y-81778300D01*
X91410800Y-73837700D02*
X106295000Y-73837700D01*
X90998300Y-74250200D02*
X91410800Y-73837700D01*
X90998300Y-80914600D02*
X90998300Y-74250200D01*
X91862000Y-81778300D02*
X90998300Y-80914600D01*
X92150000Y-81778300D02*
X91862000Y-81778300D01*
%TO.N,/MOTOR2_CTRL2*%
X98767200Y-82285300D02*
X102981400Y-82285300D01*
X96871900Y-80390000D02*
X98767200Y-82285300D01*
X94690000Y-80390000D02*
X96871900Y-80390000D01*
%TO.N,/Motor2_A_OUT*%
X94690000Y-75310000D02*
X95841700Y-75310000D01*
X96582300Y-76050600D02*
X105638000Y-76050600D01*
X95841700Y-75310000D02*
X96582300Y-76050600D01*
%TO.N,/MOTOR3_A_OUT*%
X94397500Y-109713700D02*
X101350000Y-109713700D01*
X93301700Y-108617900D02*
X94397500Y-109713700D01*
X93301700Y-108330000D02*
X93301700Y-108617900D01*
X92150000Y-108330000D02*
X93301700Y-108330000D01*
%TO.N,/MOTOR3_CTRL1*%
X94690000Y-103250000D02*
X95841700Y-103250000D01*
X96086400Y-103250000D02*
X101161000Y-98175400D01*
X95841700Y-103250000D02*
X96086400Y-103250000D01*
%TO.N,/MOTOR4_CTRL1*%
X104606900Y-85270000D02*
X109735200Y-90398300D01*
X99504600Y-85270000D02*
X104606900Y-85270000D01*
X97164600Y-82930000D02*
X99504600Y-85270000D01*
X94690000Y-82930000D02*
X97164600Y-82930000D01*
%TO.N,Net-(IC2-ILIM)*%
X130363800Y-65143700D02*
X133118400Y-65143700D01*
%TO.N,Net-(IC1-CC1)*%
X98735200Y-124716500D02*
X96952700Y-126499000D01*
X107414800Y-124716500D02*
X98735200Y-124716500D01*
%TO.N,Net-(IC2-VBN)*%
X132372400Y-65745400D02*
X127294500Y-65745400D01*
X137498700Y-70871700D02*
X132372400Y-65745400D01*
%TO.N,/EXT_LOAD2_OUT*%
X92150000Y-88010000D02*
X92150000Y-86858300D01*
X94444200Y-84083700D02*
X97418000Y-84083700D01*
X93301700Y-85226200D02*
X94444200Y-84083700D01*
X93301700Y-85994600D02*
X93301700Y-85226200D01*
X92438000Y-86858300D02*
X93301700Y-85994600D01*
X92150000Y-86858300D02*
X92438000Y-86858300D01*
%TO.N,/EXT_LOAD1_OUT*%
X93420000Y-99440000D02*
X92150000Y-100710000D01*
X97982100Y-99440000D02*
X93420000Y-99440000D01*
X101624100Y-95798000D02*
X97982100Y-99440000D01*
X107736600Y-95798000D02*
X101624100Y-95798000D01*
X107765700Y-95827100D02*
X107736600Y-95798000D01*
X116278700Y-95827100D02*
X107765700Y-95827100D01*
%TO.N,/5V Out*%
X94690000Y-98170000D02*
X95841700Y-98170000D01*
X98813000Y-95198700D02*
X95841700Y-98170000D01*
X114091300Y-95198700D02*
X98813000Y-95198700D01*
X114091300Y-95198800D02*
X114091300Y-95198700D01*
X118012400Y-95198800D02*
X114091300Y-95198800D01*
X119787500Y-96973900D02*
X118012400Y-95198800D01*
X119787500Y-97196700D02*
X119787500Y-96973900D01*
X113255400Y-66374300D02*
X124033700Y-66374300D01*
X124033700Y-66374300D02*
X128371700Y-66374300D01*
X130421000Y-59987000D02*
X142812500Y-59987000D01*
X124033700Y-66374300D02*
X130421000Y-59987000D01*
%TO.N,/HV*%
X94690000Y-100710000D02*
X93538300Y-100710000D01*
X97496600Y-107075500D02*
X113900000Y-107075500D01*
X97496600Y-107075600D02*
X97496600Y-107075500D01*
X97138800Y-107433400D02*
X97496600Y-107075600D01*
X96640500Y-107433400D02*
X97138800Y-107433400D01*
X96282600Y-107075500D02*
X96640500Y-107433400D01*
X91748900Y-107075500D02*
X96282600Y-107075500D01*
X90959200Y-106285800D02*
X91748900Y-107075500D01*
X90959200Y-102719300D02*
X90959200Y-106285800D01*
X91816800Y-101861700D02*
X90959200Y-102719300D01*
X92674600Y-101861700D02*
X91816800Y-101861700D01*
X93538300Y-100998000D02*
X92674600Y-101861700D01*
X93538300Y-100710000D02*
X93538300Y-100998000D01*
X127754300Y-107075500D02*
X128575000Y-107896200D01*
X113900000Y-107075500D02*
X127754300Y-107075500D01*
X131320500Y-110641700D02*
X128575000Y-107896200D01*
X135611000Y-110641700D02*
X131320500Y-110641700D01*
%TO.N,/Battery*%
X94690000Y-90550000D02*
X98933300Y-90550000D01*
X98933300Y-90550000D02*
X103970000Y-90550000D01*
X103970000Y-90550000D02*
X107350000Y-90550000D01*
X132355300Y-91568800D02*
X120863800Y-91568800D01*
X133490700Y-90433400D02*
X132355300Y-91568800D01*
X111258100Y-120779300D02*
X108855000Y-118376200D01*
X134274900Y-120779300D02*
X111258100Y-120779300D01*
X134542400Y-120511800D02*
X134274900Y-120779300D01*
X120863800Y-91568800D02*
X111826300Y-91568800D01*
X134869700Y-120184500D02*
X134542400Y-120511800D01*
X140611900Y-120184500D02*
X134869700Y-120184500D01*
X142745500Y-122318100D02*
X140611900Y-120184500D01*
X108368800Y-91568800D02*
X107350000Y-90550000D01*
X111826300Y-91568800D02*
X108368800Y-91568800D01*
X127171800Y-78319100D02*
X128375000Y-77115900D01*
X125832300Y-78319100D02*
X127171800Y-78319100D01*
X124846200Y-79305200D02*
X125832300Y-78319100D01*
X120463200Y-79305200D02*
X124846200Y-79305200D01*
%TO.N,GND*%
X92150000Y-103250000D02*
X93301700Y-103250000D01*
X96378900Y-102098300D02*
X100052700Y-98424500D01*
X94165400Y-102098300D02*
X96378900Y-102098300D01*
X93301700Y-102962000D02*
X94165400Y-102098300D01*
X93301700Y-103250000D02*
X93301700Y-102962000D01*
X102077500Y-96399700D02*
X107487400Y-96399700D01*
X100052700Y-98424500D02*
X102077500Y-96399700D01*
%TO.N,/3V3 Out*%
X105639100Y-72295600D02*
X89715800Y-72295600D01*
X106906800Y-73563300D02*
X105639100Y-72295600D01*
X106906800Y-75000100D02*
X106906800Y-73563300D01*
X116359500Y-75000100D02*
X106906800Y-75000100D01*
X117025000Y-75665600D02*
X116359500Y-75000100D01*
X106906800Y-75000100D02*
X96785300Y-75000100D01*
%TD*%
M02*
