%TF.GenerationSoftware,KiCad,Pcbnew,9.0.0*%
%TF.CreationDate,2025-04-05T16:57:48+02:00*%
%TF.ProjectId,PCB_v2,5043425f-7632-42e6-9b69-6361645f7063,rev?*%
%TF.SameCoordinates,Original*%
%TF.FileFunction,Legend,Bot*%
%TF.FilePolarity,Positive*%
%FSLAX46Y46*%
G04 Gerber Fmt 4.6, Leading zero omitted, Abs format (unit mm)*
G04 Created by KiCad (PCBNEW 9.0.0) date 2025-04-05 16:57:48*
%MOMM*%
%LPD*%
G01*
G04 APERTURE LIST*
%ADD10C,0.508000*%
%ADD11R,1.350000X1.350000*%
%ADD12C,1.350000*%
%ADD13C,2.057400*%
%ADD14C,0.650000*%
%ADD15O,2.050000X0.950000*%
%ADD16O,1.750000X0.950000*%
%ADD17R,1.700000X1.700000*%
%ADD18O,1.700000X1.700000*%
%ADD19R,1.000000X1.000000*%
G04 APERTURE END LIST*
D10*
%TO.C,SW1*%
X133871700Y-83321401D02*
G75*
G02*
X133109700Y-83321401I-381000J0D01*
G01*
X133109700Y-83321401D02*
G75*
G02*
X133871700Y-83321401I381000J0D01*
G01*
%TD*%
%LPC*%
D11*
%TO.C,J3*%
X141775000Y-133600000D03*
D12*
X139775000Y-133600000D03*
%TD*%
D13*
%TO.C,SW1*%
X133490700Y-85733400D03*
X133490700Y-90433401D03*
X133490700Y-95133401D03*
%TD*%
D14*
%TO.C,J2*%
X96955000Y-124885000D03*
X96955000Y-130665000D03*
D15*
X97475000Y-123450000D03*
X97475000Y-132100000D03*
D16*
X93275000Y-123450000D03*
X93275000Y-132100000D03*
%TD*%
D17*
%TO.C,J1*%
X92150000Y-75310000D03*
D18*
X94690000Y-75310000D03*
X92150000Y-77850000D03*
X94690000Y-77850000D03*
X92150000Y-80390000D03*
X94690000Y-80390000D03*
X92150000Y-82930000D03*
X94690000Y-82930000D03*
X92150000Y-85470000D03*
X94690000Y-85470000D03*
X92150000Y-88010000D03*
X94690000Y-88010000D03*
X92150000Y-90550000D03*
X94690000Y-90550000D03*
X92150000Y-93090000D03*
X94690000Y-93090000D03*
X92150000Y-95630000D03*
X94690000Y-95630000D03*
X92150000Y-98170000D03*
X94690000Y-98170000D03*
X92150000Y-100710000D03*
X94690000Y-100710000D03*
X92150000Y-103250000D03*
X94690000Y-103250000D03*
X92150000Y-105790000D03*
X94690000Y-105790000D03*
X92150000Y-108330000D03*
X94690000Y-108330000D03*
X92150000Y-110870000D03*
X94690000Y-110870000D03*
X92150000Y-113410000D03*
X94690000Y-113410000D03*
%TD*%
D19*
%TO.C,MCUTP1*%
X129350000Y-127375000D03*
%TD*%
%LPD*%
M02*
