M48
; DRILL file {KiCad 9.0.0} date 2025-04-05T16:57:48+0200
; FORMAT={-:-/ absolute / inch / decimal}
; #@! TF.CreationDate,2025-04-05T16:57:48+02:00
; #@! TF.GenerationSoftware,Kicad,Pcbnew,9.0.0
; #@! TF.FileFunction,Plated,1,2,PTH
FMAT,2
INCH
; #@! TA.AperFunction,Plated,PTH,ViaDrill
T1C0.0118
; #@! TA.AperFunction,Plated,PTH,ComponentDrill
T2C0.0197
; #@! TA.AperFunction,Plated,PTH,ComponentDrill
T3C0.0256
; #@! TA.AperFunction,Plated,PTH,ComponentDrill
T4C0.0354
; #@! TA.AperFunction,Plated,PTH,ComponentDrill
T5C0.0394
; #@! TA.AperFunction,Plated,PTH,ComponentDrill
T6C0.0610
%
G90
G05
T1
X3.5321Y-2.8463
X3.6733Y-3.615
X3.7582Y-3.4103
X3.8104Y-2.9528
X3.8146Y-4.206
X3.817Y-4.9803
X3.8354Y-3.3104
X3.877Y-3.1926
X3.895Y-3.565
X3.9024Y-3.1581
X3.9391Y-3.875
X3.9827Y-3.8652
X3.9902Y-4.3194
X4.0544Y-3.2396
X4.0695Y-3.4076
X4.0774Y-4.0059
X4.0933Y-3.565
X4.1174Y-5.0043
X4.159Y-2.9941
X4.1742Y-4.3575
X4.1832Y-3.082
X4.1848Y-2.907
X4.2008Y-3.126
X4.2264Y-3.565
X4.2289Y-4.9101
X4.2318Y-3.7953
X4.2578Y-3.1503
X4.2683Y-3.8988
X4.2856Y-4.6605
X4.2972Y-3.5812
X4.3203Y-3.559
X4.3368Y-3.6713
X4.3405Y-4.24
X4.3783Y-3.4684
X4.4026Y-3.6051
X4.4589Y-2.6132
X4.4843Y-4.2156
X4.4918Y-3.748
X4.4918Y-5.0043
X4.5779Y-3.7727
X4.6073Y-2.979
X4.6821Y-3.819
X4.716Y-3.8266
X4.7321Y-3.7388
X4.7426Y-3.1223
X4.7584Y-3.6051
X4.954Y-3.0834
X4.9822Y-4.7294
X4.9822Y-4.6201
X5.0116Y-2.5884
X5.054Y-2.6132
X5.0541Y-3.0361
X5.062Y-4.2479
X5.1324Y-2.5647
X5.2409Y-2.5647
X5.2726Y-2.5624
X5.2923Y-4.7048
X5.2969Y-4.7446
X5.32Y-4.6138
X5.3304Y-4.7554
X5.339Y-4.356
X5.4133Y-2.7902
X5.4435Y-4.5222
X5.4439Y-4.463
X5.5027Y-4.559
X5.5586Y-4.463
X5.596Y-2.5624
X5.6199Y-4.8157
X5.6225Y-2.3617
X5.7742Y-4.4732
T2
X5.0925Y-5.0148
T4
X5.503Y-5.2598
X5.5817Y-5.2598
T5
X3.628Y-2.965
X3.628Y-3.065
X3.628Y-3.165
X3.628Y-3.265
X3.628Y-3.365
X3.628Y-3.465
X3.628Y-3.565
X3.628Y-3.665
X3.628Y-3.765
X3.628Y-3.865
X3.628Y-3.965
X3.628Y-4.065
X3.628Y-4.165
X3.628Y-4.265
X3.628Y-4.365
X3.628Y-4.465
X3.728Y-2.965
X3.728Y-3.065
X3.728Y-3.165
X3.728Y-3.265
X3.728Y-3.365
X3.728Y-3.465
X3.728Y-3.565
X3.728Y-3.665
X3.728Y-3.765
X3.728Y-3.865
X3.728Y-3.965
X3.728Y-4.065
X3.728Y-4.165
X3.728Y-4.265
X3.728Y-4.365
X3.728Y-4.465
T6
X5.2555Y-3.3753
X5.2555Y-3.5604
X5.2555Y-3.7454
T3
G00X3.6885Y-4.8602
M15
G01X3.656Y-4.8602
M16
G05
G00X3.6885Y-5.2008
M15
G01X3.656Y-5.2008
M16
G05
G00X3.8598Y-4.8602
M15
G01X3.8154Y-4.8602
M16
G05
G00X3.8598Y-5.2008
M15
G01X3.8154Y-5.2008
M16
G05
M30
