%TF.GenerationSoftware,KiCad,Pcbnew,9.0.0*%
%TF.CreationDate,2025-04-05T16:57:48+02:00*%
%TF.ProjectId,PCB_v2,5043425f-7632-42e6-9b69-6361645f7063,rev?*%
%TF.SameCoordinates,Original*%
%TF.FileFunction,Soldermask,Top*%
%TF.FilePolarity,Negative*%
%FSLAX46Y46*%
G04 Gerber Fmt 4.6, Leading zero omitted, Abs format (unit mm)*
G04 Created by KiCad (PCBNEW 9.0.0) date 2025-04-05 16:57:48*
%MOMM*%
%LPD*%
G01*
G04 APERTURE LIST*
G04 Aperture macros list*
%AMRoundRect*
0 Rectangle with rounded corners*
0 $1 Rounding radius*
0 $2 $3 $4 $5 $6 $7 $8 $9 X,Y pos of 4 corners*
0 Add a 4 corners polygon primitive as box body*
4,1,4,$2,$3,$4,$5,$6,$7,$8,$9,$2,$3,0*
0 Add four circle primitives for the rounded corners*
1,1,$1+$1,$2,$3*
1,1,$1+$1,$4,$5*
1,1,$1+$1,$6,$7*
1,1,$1+$1,$8,$9*
0 Add four rect primitives between the rounded corners*
20,1,$1+$1,$2,$3,$4,$5,0*
20,1,$1+$1,$4,$5,$6,$7,0*
20,1,$1+$1,$6,$7,$8,$9,0*
20,1,$1+$1,$8,$9,$2,$3,0*%
G04 Aperture macros list end*
%ADD10C,0.010000*%
%ADD11R,1.000000X1.000000*%
%ADD12R,1.350000X1.350000*%
%ADD13C,1.350000*%
%ADD14RoundRect,0.237500X0.250000X0.237500X-0.250000X0.237500X-0.250000X-0.237500X0.250000X-0.237500X0*%
%ADD15RoundRect,0.250000X-0.625000X0.400000X-0.625000X-0.400000X0.625000X-0.400000X0.625000X0.400000X0*%
%ADD16RoundRect,0.250000X0.400000X0.625000X-0.400000X0.625000X-0.400000X-0.625000X0.400000X-0.625000X0*%
%ADD17RoundRect,0.250000X0.450000X-0.350000X0.450000X0.350000X-0.450000X0.350000X-0.450000X-0.350000X0*%
%ADD18R,1.400000X0.700000*%
%ADD19R,2.300000X3.200000*%
%ADD20RoundRect,0.160000X0.197500X0.160000X-0.197500X0.160000X-0.197500X-0.160000X0.197500X-0.160000X0*%
%ADD21RoundRect,0.250000X0.412500X0.650000X-0.412500X0.650000X-0.412500X-0.650000X0.412500X-0.650000X0*%
%ADD22RoundRect,0.237500X0.237500X-0.250000X0.237500X0.250000X-0.237500X0.250000X-0.237500X-0.250000X0*%
%ADD23RoundRect,0.250000X-0.412500X-0.650000X0.412500X-0.650000X0.412500X0.650000X-0.412500X0.650000X0*%
%ADD24RoundRect,0.237500X0.237500X-0.300000X0.237500X0.300000X-0.237500X0.300000X-0.237500X-0.300000X0*%
%ADD25RoundRect,0.237500X-0.237500X0.300000X-0.237500X-0.300000X0.237500X-0.300000X0.237500X0.300000X0*%
%ADD26RoundRect,0.237500X-0.300000X-0.237500X0.300000X-0.237500X0.300000X0.237500X-0.300000X0.237500X0*%
%ADD27RoundRect,0.250000X0.650000X-0.412500X0.650000X0.412500X-0.650000X0.412500X-0.650000X-0.412500X0*%
%ADD28R,0.600000X0.250000*%
%ADD29R,0.900000X0.250000*%
%ADD30R,1.300000X0.250000*%
%ADD31RoundRect,0.250000X-0.450000X0.350000X-0.450000X-0.350000X0.450000X-0.350000X0.450000X0.350000X0*%
%ADD32RoundRect,0.250000X-0.650000X0.412500X-0.650000X-0.412500X0.650000X-0.412500X0.650000X0.412500X0*%
%ADD33RoundRect,0.250000X0.350000X0.450000X-0.350000X0.450000X-0.350000X-0.450000X0.350000X-0.450000X0*%
%ADD34RoundRect,0.155000X0.155000X-0.212500X0.155000X0.212500X-0.155000X0.212500X-0.155000X-0.212500X0*%
%ADD35C,2.057400*%
%ADD36R,0.990000X0.300000*%
%ADD37R,0.300000X0.990000*%
%ADD38R,3.150000X2.150000*%
%ADD39RoundRect,0.059250X-0.397750X-0.177750X0.397750X-0.177750X0.397750X0.177750X-0.397750X0.177750X0*%
%ADD40RoundRect,0.102000X-0.250000X-0.430000X0.250000X-0.430000X0.250000X0.430000X-0.250000X0.430000X0*%
%ADD41RoundRect,0.160000X0.160000X-0.197500X0.160000X0.197500X-0.160000X0.197500X-0.160000X-0.197500X0*%
%ADD42O,2.254000X1.154000*%
%ADD43O,1.954000X1.154000*%
%ADD44RoundRect,0.237500X-0.250000X-0.237500X0.250000X-0.237500X0.250000X0.237500X-0.250000X0.237500X0*%
%ADD45R,2.310000X2.460000*%
%ADD46RoundRect,0.100000X-0.100000X0.687500X-0.100000X-0.687500X0.100000X-0.687500X0.100000X0.687500X0*%
%ADD47RoundRect,0.085500X-0.621500X-0.256500X0.621500X-0.256500X0.621500X0.256500X-0.621500X0.256500X0*%
%ADD48RoundRect,0.250000X-0.337500X-0.475000X0.337500X-0.475000X0.337500X0.475000X-0.337500X0.475000X0*%
%ADD49RoundRect,0.250000X-0.400000X-0.625000X0.400000X-0.625000X0.400000X0.625000X-0.400000X0.625000X0*%
%ADD50RoundRect,0.155000X-0.212500X-0.155000X0.212500X-0.155000X0.212500X0.155000X-0.212500X0.155000X0*%
%ADD51RoundRect,0.237500X0.287500X0.237500X-0.287500X0.237500X-0.287500X-0.237500X0.287500X-0.237500X0*%
%ADD52R,0.850000X0.300000*%
%ADD53R,0.300000X0.850000*%
%ADD54R,1.650000X1.650000*%
%ADD55RoundRect,0.250000X-0.350000X-0.450000X0.350000X-0.450000X0.350000X0.450000X-0.350000X0.450000X0*%
%ADD56RoundRect,0.237500X-0.237500X0.287500X-0.237500X-0.287500X0.237500X-0.287500X0.237500X0.287500X0*%
%ADD57R,1.700000X1.700000*%
%ADD58O,1.700000X1.700000*%
%ADD59RoundRect,0.100000X0.100000X-0.687500X0.100000X0.687500X-0.100000X0.687500X-0.100000X-0.687500X0*%
G04 APERTURE END LIST*
D10*
%TO.C,J2*%
X98645000Y-124925000D02*
X97405000Y-124925000D01*
X97405000Y-124225000D01*
X98645000Y-124225000D01*
X98645000Y-124925000D01*
G36*
X98645000Y-124925000D02*
G01*
X97405000Y-124925000D01*
X97405000Y-124225000D01*
X98645000Y-124225000D01*
X98645000Y-124925000D01*
G37*
X98645000Y-125725000D02*
X97405000Y-125725000D01*
X97405000Y-125025000D01*
X98645000Y-125025000D01*
X98645000Y-125725000D01*
G36*
X98645000Y-125725000D02*
G01*
X97405000Y-125725000D01*
X97405000Y-125025000D01*
X98645000Y-125025000D01*
X98645000Y-125725000D01*
G37*
X98645000Y-126225000D02*
X97405000Y-126225000D01*
X97405000Y-125825000D01*
X98645000Y-125825000D01*
X98645000Y-126225000D01*
G36*
X98645000Y-126225000D02*
G01*
X97405000Y-126225000D01*
X97405000Y-125825000D01*
X98645000Y-125825000D01*
X98645000Y-126225000D01*
G37*
X98645000Y-126725000D02*
X97405000Y-126725000D01*
X97405000Y-126325000D01*
X98645000Y-126325000D01*
X98645000Y-126725000D01*
G36*
X98645000Y-126725000D02*
G01*
X97405000Y-126725000D01*
X97405000Y-126325000D01*
X98645000Y-126325000D01*
X98645000Y-126725000D01*
G37*
X98645000Y-127225000D02*
X97405000Y-127225000D01*
X97405000Y-126825000D01*
X98645000Y-126825000D01*
X98645000Y-127225000D01*
G36*
X98645000Y-127225000D02*
G01*
X97405000Y-127225000D01*
X97405000Y-126825000D01*
X98645000Y-126825000D01*
X98645000Y-127225000D01*
G37*
X98645000Y-127725000D02*
X97405000Y-127725000D01*
X97405000Y-127325000D01*
X98645000Y-127325000D01*
X98645000Y-127725000D01*
G36*
X98645000Y-127725000D02*
G01*
X97405000Y-127725000D01*
X97405000Y-127325000D01*
X98645000Y-127325000D01*
X98645000Y-127725000D01*
G37*
X98645000Y-128225000D02*
X97405000Y-128225000D01*
X97405000Y-127825000D01*
X98645000Y-127825000D01*
X98645000Y-128225000D01*
G36*
X98645000Y-128225000D02*
G01*
X97405000Y-128225000D01*
X97405000Y-127825000D01*
X98645000Y-127825000D01*
X98645000Y-128225000D01*
G37*
X98645000Y-128725000D02*
X97405000Y-128725000D01*
X97405000Y-128325000D01*
X98645000Y-128325000D01*
X98645000Y-128725000D01*
G36*
X98645000Y-128725000D02*
G01*
X97405000Y-128725000D01*
X97405000Y-128325000D01*
X98645000Y-128325000D01*
X98645000Y-128725000D01*
G37*
X98645000Y-129225000D02*
X97405000Y-129225000D01*
X97405000Y-128825000D01*
X98645000Y-128825000D01*
X98645000Y-129225000D01*
G36*
X98645000Y-129225000D02*
G01*
X97405000Y-129225000D01*
X97405000Y-128825000D01*
X98645000Y-128825000D01*
X98645000Y-129225000D01*
G37*
X98645000Y-129725000D02*
X97405000Y-129725000D01*
X97405000Y-129325000D01*
X98645000Y-129325000D01*
X98645000Y-129725000D01*
G36*
X98645000Y-129725000D02*
G01*
X97405000Y-129725000D01*
X97405000Y-129325000D01*
X98645000Y-129325000D01*
X98645000Y-129725000D01*
G37*
X98645000Y-130525000D02*
X97405000Y-130525000D01*
X97405000Y-129825000D01*
X98645000Y-129825000D01*
X98645000Y-130525000D01*
G36*
X98645000Y-130525000D02*
G01*
X97405000Y-130525000D01*
X97405000Y-129825000D01*
X98645000Y-129825000D01*
X98645000Y-130525000D01*
G37*
X98645000Y-131325000D02*
X97405000Y-131325000D01*
X97405000Y-130625000D01*
X98645000Y-130625000D01*
X98645000Y-131325000D01*
G36*
X98645000Y-131325000D02*
G01*
X97405000Y-131325000D01*
X97405000Y-130625000D01*
X98645000Y-130625000D01*
X98645000Y-131325000D01*
G37*
%TD*%
D11*
%TO.C,TP6*%
X101350000Y-112550000D03*
%TD*%
D12*
%TO.C,J3*%
X141775000Y-133600000D03*
D13*
X139775000Y-133600000D03*
%TD*%
D14*
%TO.C,R12*%
X136787500Y-122376000D03*
X134962500Y-122376000D03*
%TD*%
D15*
%TO.C,R32*%
X107125000Y-57775000D03*
X107125000Y-60875000D03*
%TD*%
D16*
%TO.C,R16*%
X120325000Y-115425000D03*
X117225000Y-115425000D03*
%TD*%
D11*
%TO.C,TP5*%
X108150000Y-78350000D03*
%TD*%
D17*
%TO.C,R17*%
X140950000Y-106651000D03*
X140950000Y-104651000D03*
%TD*%
D18*
%TO.C,IC1*%
X103375000Y-120550000D03*
X103375000Y-121550000D03*
X103375000Y-122550000D03*
X103375000Y-123550000D03*
X103375000Y-124550000D03*
X108875000Y-124550000D03*
X108875000Y-123550000D03*
X108875000Y-122550000D03*
X108875000Y-121550000D03*
X108875000Y-120550000D03*
D19*
X106125000Y-122550000D03*
%TD*%
D15*
%TO.C,R18*%
X141150000Y-112025000D03*
X141150000Y-115125000D03*
%TD*%
D20*
%TO.C,R25*%
X122345000Y-85175000D03*
X121150000Y-85175000D03*
%TD*%
D21*
%TO.C,C15*%
X136912500Y-62025000D03*
X133787500Y-62025000D03*
%TD*%
D22*
%TO.C,R20*%
X129350000Y-68087500D03*
X129350000Y-66262500D03*
%TD*%
D21*
%TO.C,C6*%
X136037500Y-105901000D03*
X132912500Y-105901000D03*
%TD*%
D23*
%TO.C,C8*%
X116162500Y-92825000D03*
X119287500Y-92825000D03*
%TD*%
D24*
%TO.C,C21*%
X126075000Y-70462500D03*
X126075000Y-68737500D03*
%TD*%
D25*
%TO.C,C11*%
X100600000Y-84612500D03*
X100600000Y-86337500D03*
%TD*%
D16*
%TO.C,R8*%
X99425000Y-64275000D03*
X96325000Y-64275000D03*
%TD*%
D11*
%TO.C,TP2*%
X102950000Y-68700000D03*
%TD*%
%TO.C,TP1*%
X121950000Y-95850000D03*
%TD*%
D26*
%TO.C,C17*%
X140412500Y-66475000D03*
X142137500Y-66475000D03*
%TD*%
D27*
%TO.C,C13*%
X145650000Y-122538500D03*
X145650000Y-119413500D03*
%TD*%
D15*
%TO.C,R14*%
X125150000Y-117350000D03*
X125150000Y-120450000D03*
%TD*%
D28*
%TO.C,IC3*%
X121275000Y-79125000D03*
X121275000Y-79625000D03*
X121275000Y-80125000D03*
X121275000Y-80625000D03*
X121275000Y-81125000D03*
D29*
X122925000Y-81125000D03*
X122925000Y-80625000D03*
D30*
X122725000Y-80125000D03*
D29*
X122925000Y-79625000D03*
X122925000Y-79125000D03*
%TD*%
D31*
%TO.C,R19*%
X127150000Y-111950000D03*
X127150000Y-113950000D03*
%TD*%
D32*
%TO.C,C10*%
X99900000Y-71012500D03*
X99900000Y-74137500D03*
%TD*%
D27*
%TO.C,C14*%
X145650000Y-115188500D03*
X145650000Y-112063500D03*
%TD*%
D15*
%TO.C,R13*%
X128575000Y-106725000D03*
X128575000Y-109825000D03*
%TD*%
D33*
%TO.C,R33*%
X141300000Y-119201000D03*
X139300000Y-119201000D03*
%TD*%
D34*
%TO.C,C24*%
X145075000Y-72867500D03*
X145075000Y-71732500D03*
%TD*%
D11*
%TO.C,TP3*%
X130225000Y-100800000D03*
%TD*%
D35*
%TO.C,SW1*%
X133490700Y-85733400D03*
X133490700Y-90433401D03*
X133490700Y-95133401D03*
%TD*%
D36*
%TO.C,IC2*%
X132975000Y-69125000D03*
D37*
X133425000Y-70075000D03*
X133925000Y-70075000D03*
X134425000Y-70075000D03*
X134925000Y-70075000D03*
X135425000Y-70075000D03*
X135925000Y-70075000D03*
X136425000Y-70075000D03*
X136925000Y-70075000D03*
D36*
X137375000Y-69125000D03*
X137375000Y-67625000D03*
D37*
X136925000Y-66675000D03*
X136425000Y-66675000D03*
X135925000Y-66675000D03*
X135425000Y-66675000D03*
X134925000Y-66675000D03*
X134425000Y-66675000D03*
X133925000Y-66675000D03*
X133425000Y-66675000D03*
D36*
X132975000Y-67625000D03*
D38*
X135175000Y-68375000D03*
%TD*%
D39*
%TO.C,U4*%
X117335000Y-95600000D03*
X117335000Y-96100000D03*
X118925000Y-96100000D03*
X118925000Y-95600000D03*
D40*
X118130000Y-95850000D03*
%TD*%
D41*
%TO.C,R23*%
X131150000Y-59097500D03*
X131150000Y-57902500D03*
%TD*%
D42*
%TO.C,J2*%
X97475000Y-123450000D03*
X97475000Y-132100000D03*
D43*
X93275000Y-123450000D03*
X93275000Y-132100000D03*
%TD*%
D44*
%TO.C,R11*%
X129200000Y-115425000D03*
X131025000Y-115425000D03*
%TD*%
D11*
%TO.C,3v3TP1*%
X121300000Y-74725000D03*
%TD*%
%TO.C,TP4*%
X142775000Y-58425000D03*
%TD*%
D45*
%TO.C,U1*%
X106375000Y-85350000D03*
D46*
X108650000Y-82487500D03*
X108000000Y-82487500D03*
X107350000Y-82487500D03*
X106700000Y-82487500D03*
X106050000Y-82487500D03*
X105400000Y-82487500D03*
X104750000Y-82487500D03*
X104100000Y-82487500D03*
X104100000Y-88212500D03*
X104750000Y-88212500D03*
X105400000Y-88212500D03*
X106050000Y-88212500D03*
X106700000Y-88212500D03*
X107350000Y-88212500D03*
X108000000Y-88212500D03*
X108650000Y-88212500D03*
%TD*%
D41*
%TO.C,R21*%
X125512500Y-65047500D03*
X125512500Y-63852500D03*
%TD*%
D15*
%TO.C,R29*%
X122650000Y-58050000D03*
X122650000Y-61150000D03*
%TD*%
D47*
%TO.C,U3*%
X96735000Y-59125000D03*
X96735000Y-59775000D03*
X96735000Y-60425000D03*
X96735000Y-61075000D03*
X99245000Y-61075000D03*
X99245000Y-60425000D03*
X99245000Y-59775000D03*
X99245000Y-59125000D03*
%TD*%
D21*
%TO.C,C2*%
X108855000Y-112675000D03*
X105730000Y-112675000D03*
%TD*%
D48*
%TO.C,C12*%
X102662500Y-78600000D03*
X104737500Y-78600000D03*
%TD*%
D20*
%TO.C,R24*%
X144300000Y-75700000D03*
X143105000Y-75700000D03*
%TD*%
D15*
%TO.C,R30*%
X115650000Y-57950000D03*
X115650000Y-61050000D03*
%TD*%
D49*
%TO.C,R7*%
X116975000Y-125275000D03*
X120075000Y-125275000D03*
%TD*%
D31*
%TO.C,R2*%
X111825000Y-84825000D03*
X111825000Y-86825000D03*
%TD*%
D50*
%TO.C,C23*%
X128090000Y-62375000D03*
X129225000Y-62375000D03*
%TD*%
D51*
%TO.C,L1*%
X135650000Y-74400000D03*
X133900000Y-74400000D03*
%TD*%
D15*
%TO.C,R28*%
X119625000Y-57950000D03*
X119625000Y-61050000D03*
%TD*%
D48*
%TO.C,C4*%
X105412500Y-97950000D03*
X107487500Y-97950000D03*
%TD*%
D32*
%TO.C,C25*%
X128375000Y-78287500D03*
X128375000Y-81412500D03*
%TD*%
D52*
%TO.C,U6*%
X134425000Y-113125000D03*
X134425000Y-113625000D03*
X134425000Y-114125000D03*
X134425000Y-114625000D03*
D53*
X135125000Y-115325000D03*
X135625000Y-115325000D03*
X136125000Y-115325000D03*
X136625000Y-115325000D03*
D52*
X137325000Y-114625000D03*
X137325000Y-114125000D03*
X137325000Y-113625000D03*
X137325000Y-113125000D03*
D53*
X136625000Y-112425000D03*
X136125000Y-112425000D03*
X135625000Y-112425000D03*
X135125000Y-112425000D03*
D54*
X135875000Y-113875000D03*
%TD*%
D21*
%TO.C,C16*%
X136862500Y-57975000D03*
X133737500Y-57975000D03*
%TD*%
D55*
%TO.C,R10*%
X111900000Y-122300000D03*
X113900000Y-122300000D03*
%TD*%
D23*
%TO.C,C19*%
X139687500Y-61950000D03*
X142812500Y-61950000D03*
%TD*%
D26*
%TO.C,C22*%
X140487500Y-69275000D03*
X142212500Y-69275000D03*
%TD*%
D39*
%TO.C,U5*%
X104705000Y-71450000D03*
X104705000Y-71950000D03*
X106295000Y-71950000D03*
X106295000Y-71450000D03*
D40*
X105500000Y-71700000D03*
%TD*%
D41*
%TO.C,R27*%
X117275000Y-85372500D03*
X117275000Y-84177500D03*
%TD*%
D15*
%TO.C,R3*%
X102600000Y-58075000D03*
X102600000Y-61175000D03*
%TD*%
D56*
%TO.C,L2*%
X116700000Y-79325000D03*
X116700000Y-81075000D03*
%TD*%
D32*
%TO.C,C18*%
X139300000Y-72712500D03*
X139300000Y-75837500D03*
%TD*%
D20*
%TO.C,R22*%
X146657500Y-68050000D03*
X145462500Y-68050000D03*
%TD*%
D57*
%TO.C,J1*%
X92150000Y-75310000D03*
D58*
X94690000Y-75310000D03*
X92150000Y-77850000D03*
X94690000Y-77850000D03*
X92150000Y-80390000D03*
X94690000Y-80390000D03*
X92150000Y-82930000D03*
X94690000Y-82930000D03*
X92150000Y-85470000D03*
X94690000Y-85470000D03*
X92150000Y-88010000D03*
X94690000Y-88010000D03*
X92150000Y-90550000D03*
X94690000Y-90550000D03*
X92150000Y-93090000D03*
X94690000Y-93090000D03*
X92150000Y-95630000D03*
X94690000Y-95630000D03*
X92150000Y-98170000D03*
X94690000Y-98170000D03*
X92150000Y-100710000D03*
X94690000Y-100710000D03*
X92150000Y-103250000D03*
X94690000Y-103250000D03*
X92150000Y-105790000D03*
X94690000Y-105790000D03*
X92150000Y-108330000D03*
X94690000Y-108330000D03*
X92150000Y-110870000D03*
X94690000Y-110870000D03*
X92150000Y-113410000D03*
X94690000Y-113410000D03*
%TD*%
D11*
%TO.C,MCUTP1*%
X129350000Y-127375000D03*
%TD*%
D17*
%TO.C,R15*%
X145525000Y-107401000D03*
X145525000Y-105401000D03*
%TD*%
D32*
%TO.C,C9*%
X110700000Y-71412500D03*
X110700000Y-74537500D03*
%TD*%
D31*
%TO.C,R6*%
X98200000Y-105025000D03*
X98200000Y-107025000D03*
%TD*%
D23*
%TO.C,C20*%
X127262500Y-72625000D03*
X130387500Y-72625000D03*
%TD*%
%TO.C,C1*%
X103970000Y-93300000D03*
X107095000Y-93300000D03*
%TD*%
D45*
%TO.C,U2*%
X106350000Y-105750000D03*
D59*
X104075000Y-108612500D03*
X104725000Y-108612500D03*
X105375000Y-108612500D03*
X106025000Y-108612500D03*
X106675000Y-108612500D03*
X107325000Y-108612500D03*
X107975000Y-108612500D03*
X108625000Y-108612500D03*
X108625000Y-102887500D03*
X107975000Y-102887500D03*
X107325000Y-102887500D03*
X106675000Y-102887500D03*
X106025000Y-102887500D03*
X105375000Y-102887500D03*
X104725000Y-102887500D03*
X104075000Y-102887500D03*
%TD*%
D24*
%TO.C,C5*%
X112700000Y-107287500D03*
X112700000Y-105562500D03*
%TD*%
D15*
%TO.C,R5*%
X91750000Y-58075000D03*
X91750000Y-61175000D03*
%TD*%
D32*
%TO.C,C3*%
X116800000Y-129737500D03*
X116800000Y-132862500D03*
%TD*%
D15*
%TO.C,R31*%
X111575000Y-57750000D03*
X111575000Y-60850000D03*
%TD*%
D23*
%TO.C,C26*%
X125525000Y-86825000D03*
X128650000Y-86825000D03*
%TD*%
D21*
%TO.C,C7*%
X119787500Y-99150000D03*
X116662500Y-99150000D03*
%TD*%
D55*
%TO.C,R9*%
X105575000Y-131550000D03*
X107575000Y-131550000D03*
%TD*%
D14*
%TO.C,R26*%
X117025000Y-74675000D03*
X115200000Y-74675000D03*
%TD*%
M02*
